<svg xmlns="http://www.w3.org/2000/svg" xmlns:xlink="http://www.w3.org/1999/xlink" width="596pt" height="242pt" viewBox="0.00 0.00 596.00 242.00">
<g id="graph0" class="graph" transform="scale(1 1) rotate(0) translate(4 237.86)">
<title>FiniteAutomaton</title>
<polygon fill="white" stroke="none" points="-4,4 -4,-237.86 592.15,-237.86 592.15,4 -4,4"/>
<!-- initial -->
<g id="node1" class="node">
<title>initial</title>
<ellipse fill="black" stroke="black" cx="1.8" cy="-148.06" rx="1.8" ry="1.8"/>
</g>
<!-- 1 -->
<g id="node2" class="node">
<title>1</title>
<ellipse fill="none" stroke="black" cx="61.84" cy="-148.06" rx="21.24" ry="21.24"/>
<text xml:space="preserve" text-anchor="middle" x="61.84" y="-143.86" font-family="Times,serif" font-size="14.00">S1</text>
</g>
<!-- initial&#45;&gt;1 -->
<g id="edge1" class="edge">
<title>initial-&gt;1</title>
<path fill="none" stroke="black" d="M3.81,-148.06C7.06,-148.06 17.72,-148.06 28.95,-148.06"/>
<polygon fill="black" stroke="black" points="28.62,-151.56 38.62,-148.06 28.62,-144.56 28.62,-151.56"/>
</g>
<!-- 2 -->
<g id="node4" class="node">
<title>2</title>
<ellipse fill="none" stroke="black" cx="157.02" cy="-148.06" rx="21.24" ry="21.24"/>
<text xml:space="preserve" text-anchor="middle" x="157.02" y="-143.86" font-family="Times,serif" font-size="14.00">S2</text>
</g>
<!-- 1&#45;&gt;2 -->
<g id="edge2" class="edge">
<title>1-&gt;2</title>
<path fill="none" stroke="black" d="M83.52,-148.06C95.46,-148.06 110.73,-148.06 124.18,-148.06"/>
<polygon fill="black" stroke="black" points="123.88,-151.56 133.88,-148.06 123.88,-144.56 123.88,-151.56"/>
<text xml:space="preserve" text-anchor="middle" x="109.43" y="-152.26" font-family="Times,serif" font-size="14.00">a</text>
</g>
<!-- 9 -->
<g id="node11" class="node">
<title>9</title>
<ellipse fill="none" stroke="black" cx="157.02" cy="-68.06" rx="21.24" ry="21.24"/>
<text xml:space="preserve" text-anchor="middle" x="157.02" y="-63.86" font-family="Times,serif" font-size="14.00">S9</text>
</g>
<!-- 1&#45;&gt;9 -->
<g id="edge12" class="edge">
<title>1-&gt;9</title>
<path fill="none" stroke="black" d="M78.64,-134.49C93.1,-122.08 114.72,-103.52 131.43,-89.17"/>
<polygon fill="black" stroke="black" points="133.68,-91.86 138.99,-82.69 129.12,-86.55 133.68,-91.86"/>
<text xml:space="preserve" text-anchor="middle" x="109.43" y="-119.43" font-family="Times,serif" font-size="14.00">a,b</text>
</g>
<!-- 11 -->
<g id="node3" class="node">
<title>11</title>
<ellipse fill="none" stroke="black" cx="356.16" cy="-35.06" rx="26.06" ry="26.06"/>
<ellipse fill="none" stroke="black" cx="356.16" cy="-35.06" rx="30.06" ry="30.06"/>
<text xml:space="preserve" text-anchor="middle" x="356.16" y="-30.86" font-family="Times,serif" font-size="14.00">S11</text>
</g>
<!-- 12 -->
<g id="node13" class="node">
<title>12</title>
<ellipse fill="none" stroke="black" cx="455.29" cy="-26.06" rx="26.06" ry="26.06"/>
<text xml:space="preserve" text-anchor="middle" x="455.29" y="-21.86" font-family="Times,serif" font-size="14.00">S12</text>
</g>
<!-- 11&#45;&gt;12 -->
<g id="edge15" class="edge">
<title>11-&gt;12</title>
<path fill="none" stroke="black" d="M382.15,-19.05C389.04,-15.44 396.7,-12.13 404.23,-10.26 409.83,-8.88 415.73,-9.15 421.44,-10.33"/>
<polygon fill="black" stroke="black" points="420,-13.55 430.59,-13.12 422.04,-6.86 420,-13.55"/>
<text xml:space="preserve" text-anchor="middle" x="407.73" y="-14.46" font-family="Times,serif" font-size="14.00">a</text>
</g>
<!-- 3 -->
<g id="node5" class="node">
<title>3</title>
<ellipse fill="none" stroke="black" cx="247.32" cy="-105.06" rx="21.24" ry="21.24"/>
<text xml:space="preserve" text-anchor="middle" x="247.32" y="-100.86" font-family="Times,serif" font-size="14.00">S3</text>
</g>
<!-- 2&#45;&gt;3 -->
<g id="edge3" class="edge">
<title>2-&gt;3</title>
<path fill="none" stroke="black" d="M176.75,-138.94C188.57,-133.19 204.09,-125.63 217.46,-119.12"/>
<polygon fill="black" stroke="black" points="218.8,-122.36 226.26,-114.83 215.74,-116.06 218.8,-122.36"/>
<text xml:space="preserve" text-anchor="middle" x="199.76" y="-133.34" font-family="Times,serif" font-size="14.00">b</text>
</g>
<!-- 4 -->
<g id="node6" class="node">
<title>4</title>
<ellipse fill="none" stroke="black" cx="356.16" cy="-164.06" rx="21.24" ry="21.24"/>
<text xml:space="preserve" text-anchor="middle" x="356.16" y="-159.86" font-family="Times,serif" font-size="14.00">S4</text>
</g>
<!-- 2&#45;&gt;4 -->
<g id="edge4" class="edge">
<title>2-&gt;4</title>
<path fill="none" stroke="black" d="M178.38,-149.72C212.69,-152.5 282.28,-158.15 323.17,-161.47"/>
<polygon fill="black" stroke="black" points="322.86,-164.95 333.11,-162.27 323.43,-157.98 322.86,-164.95"/>
<text xml:space="preserve" text-anchor="middle" x="247.32" y="-161.59" font-family="Times,serif" font-size="14.00">a</text>
</g>
<!-- 5 -->
<g id="node7" class="node">
<title>5</title>
<ellipse fill="none" stroke="black" cx="356.16" cy="-104.06" rx="21.24" ry="21.24"/>
<text xml:space="preserve" text-anchor="middle" x="356.16" y="-99.86" font-family="Times,serif" font-size="14.00">S5</text>
</g>
<!-- 3&#45;&gt;5 -->
<g id="edge5" class="edge">
<title>3-&gt;5</title>
<path fill="none" stroke="black" d="M268.92,-104.87C284.29,-104.73 305.58,-104.53 323.17,-104.36"/>
<polygon fill="black" stroke="black" points="323.15,-107.86 333.11,-104.27 323.08,-100.86 323.15,-107.86"/>
<text xml:space="preserve" text-anchor="middle" x="299.74" y="-108.85" font-family="Times,serif" font-size="14.00">a</text>
</g>
<!-- 6 -->
<g id="node8" class="node">
<title>6</title>
<ellipse fill="none" stroke="black" cx="455.29" cy="-108.06" rx="21.24" ry="21.24"/>
<text xml:space="preserve" text-anchor="middle" x="455.29" y="-103.86" font-family="Times,serif" font-size="14.00">S6</text>
</g>
<!-- 4&#45;&gt;6 -->
<g id="edge9" class="edge">
<title>4-&gt;6</title>
<path fill="none" stroke="black" d="M374.98,-153.79C389.4,-145.48 409.97,-133.62 426.55,-124.06"/>
<polygon fill="black" stroke="black" points="428.03,-127.24 434.95,-119.22 424.54,-121.18 428.03,-127.24"/>
<text xml:space="preserve" text-anchor="middle" x="407.73" y="-140.26" font-family="Times,serif" font-size="14.00">b</text>
</g>
<!-- 8 -->
<g id="node10" class="node">
<title>8</title>
<ellipse fill="none" stroke="black" cx="455.29" cy="-168.06" rx="21.24" ry="21.24"/>
<text xml:space="preserve" text-anchor="middle" x="455.29" y="-163.86" font-family="Times,serif" font-size="14.00">S8</text>
</g>
<!-- 4&#45;&gt;8 -->
<g id="edge10" class="edge">
<title>4-&gt;8</title>
<path fill="none" stroke="black" d="M377.76,-164.91C390.77,-165.45 407.83,-166.15 422.55,-166.76"/>
<polygon fill="black" stroke="black" points="422.07,-170.24 432.21,-167.15 422.36,-163.25 422.07,-170.24"/>
<text xml:space="preserve" text-anchor="middle" x="407.73" y="-170.38" font-family="Times,serif" font-size="14.00">a</text>
</g>
<!-- 5&#45;&gt;6 -->
<g id="edge6" class="edge">
<title>5-&gt;6</title>
<path fill="none" stroke="black" d="M377.72,-101.74C387.82,-100.92 400.17,-100.4 411.23,-101.26 415,-101.56 418.94,-102 422.84,-102.52"/>
<polygon fill="black" stroke="black" points="422.31,-105.97 432.72,-104 423.35,-99.05 422.31,-105.97"/>
<text xml:space="preserve" text-anchor="middle" x="407.73" y="-105.46" font-family="Times,serif" font-size="14.00">a</text>
</g>
<!-- 7 -->
<g id="node9" class="node">
<title>7</title>
<ellipse fill="none" stroke="black" cx="562.08" cy="-168.06" rx="21.24" ry="21.24"/>
<text xml:space="preserve" text-anchor="middle" x="562.08" y="-163.86" font-family="Times,serif" font-size="14.00">S7</text>
</g>
<!-- 6&#45;&gt;7 -->
<g id="edge7" class="edge">
<title>6-&gt;7</title>
<path fill="none" stroke="black" d="M474.07,-118.24C490.33,-127.55 514.64,-141.47 533.43,-152.23"/>
<polygon fill="black" stroke="black" points="531.49,-155.15 541.91,-157.08 534.97,-149.08 531.49,-155.15"/>
<text xml:space="preserve" text-anchor="middle" x="508.69" y="-145.86" font-family="Times,serif" font-size="14.00">a</text>
</g>
<!-- 7&#45;&gt;1 -->
<g id="edge8" class="edge">
<title>7-&gt;1</title>
<path fill="none" stroke="black" d="M545.11,-180.94C525.44,-195.46 490.43,-217.06 456.29,-217.06 156.02,-217.06 156.02,-217.06 156.02,-217.06 125.82,-217.06 99.01,-193.37 82,-173.75"/>
<polygon fill="black" stroke="black" points="84.91,-171.78 75.85,-166.29 79.51,-176.23 84.91,-171.78"/>
<text xml:space="preserve" text-anchor="middle" x="299.74" y="-221.26" font-family="Times,serif" font-size="14.00">a</text>
</g>
<!-- 8&#45;&gt;7 -->
<g id="edge11" class="edge">
<title>8-&gt;7</title>
<path fill="none" stroke="black" d="M476.99,-168.06C491.92,-168.06 512.34,-168.06 529.33,-168.06"/>
<polygon fill="black" stroke="black" points="528.91,-171.56 538.91,-168.06 528.91,-164.56 528.91,-171.56"/>
<text xml:space="preserve" text-anchor="middle" x="508.69" y="-172.26" font-family="Times,serif" font-size="14.00">b</text>
</g>
<!-- 10 -->
<g id="node12" class="node">
<title>10</title>
<ellipse fill="none" stroke="black" cx="247.32" cy="-39.06" rx="26.06" ry="26.06"/>
<text xml:space="preserve" text-anchor="middle" x="247.32" y="-34.86" font-family="Times,serif" font-size="14.00">S10</text>
</g>
<!-- 9&#45;&gt;10 -->
<g id="edge13" class="edge">
<title>9-&gt;10</title>
<path fill="none" stroke="black" d="M177.62,-61.63C187.55,-58.37 199.92,-54.3 211.41,-50.53"/>
<polygon fill="black" stroke="black" points="212.2,-53.95 220.61,-47.51 210.02,-47.3 212.2,-53.95"/>
<text xml:space="preserve" text-anchor="middle" x="199.76" y="-59.5" font-family="Times,serif" font-size="14.00">a</text>
</g>
<!-- 10&#45;&gt;11 -->
<g id="edge14" class="edge">
<title>10-&gt;11</title>
<path fill="none" stroke="black" d="M273.64,-38.12C285.89,-37.66 300.89,-37.1 314.66,-36.58"/>
<polygon fill="black" stroke="black" points="314.49,-40.09 324.35,-36.22 314.23,-33.09 314.49,-40.09"/>
<text xml:space="preserve" text-anchor="middle" x="299.74" y="-41.62" font-family="Times,serif" font-size="14.00">a,b</text>
</g>
<!-- 12&#45;&gt;11 -->
<g id="edge18" class="edge">
<title>12-&gt;11</title>
<path fill="none" stroke="black" d="M428.93,-28.41C419.4,-29.3 408.31,-30.33 397.74,-31.3"/>
<polygon fill="black" stroke="black" points="397.71,-27.79 388.08,-32.2 398.36,-34.76 397.71,-27.79"/>
<text xml:space="preserve" text-anchor="middle" x="407.73" y="-34.76" font-family="Times,serif" font-size="14.00">b</text>
</g>
<!-- 13 -->
<g id="node14" class="node">
<title>13</title>
<ellipse fill="none" stroke="black" cx="562.08" cy="-26.06" rx="26.06" ry="26.06"/>
<text xml:space="preserve" text-anchor="middle" x="562.08" y="-21.86" font-family="Times,serif" font-size="14.00">S13</text>
</g>
<!-- 12&#45;&gt;13 -->
<g id="edge16" class="edge">
<title>12-&gt;13</title>
<path fill="none" stroke="black" d="M478.61,-13.58C490.23,-8.54 504.75,-4.49 518.02,-7.26 521.24,-7.94 524.51,-8.86 527.74,-9.95"/>
<polygon fill="black" stroke="black" points="526.42,-13.19 537.01,-13.55 528.96,-6.66 526.42,-13.19"/>
<text xml:space="preserve" text-anchor="middle" x="508.69" y="-11.46" font-family="Times,serif" font-size="14.00">a</text>
</g>
<!-- 13&#45;&gt;12 -->
<g id="edge17" class="edge">
<title>13-&gt;12</title>
<path fill="none" stroke="black" d="M535.59,-26.06C522.79,-26.06 507.05,-26.06 492.98,-26.06"/>
<polygon fill="black" stroke="black" points="493.17,-22.56 483.17,-26.06 493.17,-29.56 493.17,-22.56"/>
<text xml:space="preserve" text-anchor="middle" x="508.69" y="-30.26" font-family="Times,serif" font-size="14.00">eps</text>
</g>
</g>
</svg>