<svg xmlns="http://www.w3.org/2000/svg" xmlns:xlink="http://www.w3.org/1999/xlink" width="1067pt" height="302pt" viewBox="0.00 0.00 1067.00 302.00">
<g id="graph0" class="graph" transform="scale(1 1) rotate(0) translate(4 297.93)">
<title>FiniteAutomaton</title>
<polygon fill="white" stroke="none" points="-4,4 -4,-297.93 1063.12,-297.93 1063.12,4 -4,4"/>
<!-- initial -->
<g id="node1" class="node">
<title>initial</title>
<ellipse fill="black" stroke="black" cx="1.8" cy="-161.06" rx="1.8" ry="1.8"/>
</g>
<!-- 1 -->
<g id="node2" class="node">
<title>1</title>
<ellipse fill="none" stroke="black" cx="59.15" cy="-161.06" rx="18.55" ry="18.55"/>
<text xml:space="preserve" text-anchor="middle" x="59.15" y="-156.86" font-family="Times,serif" font-size="14.00">&amp;</text>
</g>
<!-- initial&#45;&gt;1 -->
<g id="edge1" class="edge">
<title>initial-&gt;1</title>
<path fill="none" stroke="black" d="M3.76,-161.06C6.96,-161.06 17.66,-161.06 28.73,-161.06"/>
<polygon fill="black" stroke="black" points="28.6,-164.56 38.6,-161.06 28.6,-157.56 28.6,-164.56"/>
</g>
<!-- 19 -->
<g id="node5" class="node">
<title>19</title>
<ellipse fill="none" stroke="black" cx="150.76" cy="-229.06" rx="26.06" ry="26.06"/>
<ellipse fill="none" stroke="black" cx="150.76" cy="-229.06" rx="30.06" ry="30.06"/>
<text xml:space="preserve" text-anchor="middle" x="150.76" y="-224.86" font-family="Times,serif" font-size="14.00">S19</text>
</g>
<!-- 1&#45;&gt;19 -->
<g id="edge28" class="edge">
<title>1-&gt;19</title>
<path fill="none" stroke="black" d="M74.55,-171.99C86.1,-180.76 102.76,-193.4 117.47,-204.56"/>
<polygon fill="black" stroke="black" points="115.02,-207.1 125.1,-210.35 119.25,-201.52 115.02,-207.1"/>
<text xml:space="preserve" text-anchor="middle" x="99.2" y="-197.23" font-family="Times,serif" font-size="14.00">ε</text>
</g>
<!-- a1 -->
<g id="node18" class="node">
<title>a1</title>
<ellipse fill="none" stroke="black" cx="150.76" cy="-161.06" rx="20.15" ry="20.15"/>
<text xml:space="preserve" text-anchor="middle" x="150.76" y="-156.86" font-family="Times,serif" font-size="14.00">a1</text>
</g>
<!-- 1&#45;&gt;a1 -->
<g id="edge18" class="edge">
<title>1-&gt;a1</title>
<path fill="none" stroke="black" d="M77.85,-161.06C89.53,-161.06 105.14,-161.06 118.83,-161.06"/>
<polygon fill="black" stroke="black" points="118.71,-164.56 128.71,-161.06 118.71,-157.56 118.71,-164.56"/>
<text xml:space="preserve" text-anchor="middle" x="99.2" y="-165.26" font-family="Times,serif" font-size="14.00">ε</text>
</g>
<!-- 18 -->
<g id="node21" class="node">
<title>18</title>
<ellipse fill="none" stroke="black" cx="150.76" cy="-67.06" rx="20.69" ry="20.69"/>
<text xml:space="preserve" text-anchor="middle" x="150.76" y="-62.86" font-family="Times,serif" font-size="14.00">18</text>
</g>
<!-- 1&#45;&gt;18 -->
<g id="edge19" class="edge">
<title>1-&gt;18</title>
<path fill="none" stroke="black" d="M72.61,-147.99C86.95,-132.95 110.77,-107.96 128.16,-89.72"/>
<polygon fill="black" stroke="black" points="130.22,-92.63 134.59,-82.98 125.16,-87.8 130.22,-92.63"/>
<text xml:space="preserve" text-anchor="middle" x="99.2" y="-126.68" font-family="Times,serif" font-size="14.00">ε</text>
</g>
<!-- 11 -->
<g id="node3" class="node">
<title>11</title>
<ellipse fill="none" stroke="black" cx="453.92" cy="-38.06" rx="26.06" ry="26.06"/>
<ellipse fill="none" stroke="black" cx="453.92" cy="-38.06" rx="30.06" ry="30.06"/>
<text xml:space="preserve" text-anchor="middle" x="453.92" y="-33.86" font-family="Times,serif" font-size="14.00">S11</text>
</g>
<!-- 12 -->
<g id="node15" class="node">
<title>12</title>
<ellipse fill="none" stroke="black" cx="553.04" cy="-63.06" rx="26.06" ry="26.06"/>
<text xml:space="preserve" text-anchor="middle" x="553.04" y="-58.86" font-family="Times,serif" font-size="14.00">S12</text>
</g>
<!-- 11&#45;&gt;12 -->
<g id="edge24" class="edge">
<title>11-&gt;12</title>
<path fill="none" stroke="black" d="M482.58,-48.24C488.9,-50.35 495.63,-52.42 501.98,-54.06 506.38,-55.2 511.02,-56.24 515.65,-57.18"/>
<polygon fill="black" stroke="black" points="514.97,-60.62 525.44,-59.03 516.26,-53.74 514.97,-60.62"/>
<text xml:space="preserve" text-anchor="middle" x="505.48" y="-59.89" font-family="Times,serif" font-size="14.00">a</text>
</g>
<!-- 17 -->
<g id="node4" class="node">
<title>17</title>
<ellipse fill="none" stroke="black" cx="1029.06" cy="-133.06" rx="26.06" ry="26.06"/>
<ellipse fill="none" stroke="black" cx="1029.06" cy="-133.06" rx="30.06" ry="30.06"/>
<text xml:space="preserve" text-anchor="middle" x="1029.06" y="-128.86" font-family="Times,serif" font-size="14.00">S17</text>
</g>
<!-- 17&#45;&gt;17 -->
<g id="edge13" class="edge">
<title>17-&gt;17</title>
<path fill="none" stroke="black" d="M1018.5,-161.68C1018.16,-172.35 1021.68,-181.13 1029.06,-181.13 1033.56,-181.13 1036.62,-177.87 1038.25,-172.91"/>
<polygon fill="black" stroke="black" points="1041.7,-173.54 1039.43,-163.19 1034.75,-172.69 1041.7,-173.54"/>
<text xml:space="preserve" text-anchor="middle" x="1029.06" y="-185.33" font-family="Times,serif" font-size="14.00">a,b</text>
</g>
<!-- 19&#45;&gt;19 -->
<g id="edge29" class="edge">
<title>19-&gt;19</title>
<path fill="none" stroke="black" d="M141.11,-257.68C140.8,-268.35 144.01,-277.13 150.76,-277.13 154.87,-277.13 157.67,-273.87 159.16,-268.91"/>
<polygon fill="black" stroke="black" points="162.62,-269.51 160.24,-259.19 155.66,-268.74 162.62,-269.51"/>
<text xml:space="preserve" text-anchor="middle" x="150.76" y="-281.33" font-family="Times,serif" font-size="14.00">a</text>
</g>
<!-- 20 -->
<g id="node22" class="node">
<title>20</title>
<ellipse fill="none" stroke="black" cx="254.77" cy="-234.06" rx="20.69" ry="20.69"/>
<text xml:space="preserve" text-anchor="middle" x="254.77" y="-229.86" font-family="Times,serif" font-size="14.00">20</text>
</g>
<!-- 19&#45;&gt;20 -->
<g id="edge30" class="edge">
<title>19-&gt;20</title>
<path fill="none" stroke="black" d="M180.83,-233.36C186.77,-234.07 192.99,-234.69 198.82,-235.06 206.24,-235.53 208.11,-235.16 215.54,-235.06 217.78,-235.03 220.09,-235 222.42,-234.95"/>
<polygon fill="black" stroke="black" points="222.5,-238.45 232.42,-234.72 222.34,-231.45 222.5,-238.45"/>
<text xml:space="preserve" text-anchor="middle" x="207.18" y="-239.5" font-family="Times,serif" font-size="14.00">b</text>
</g>
<!-- 2 -->
<g id="node6" class="node">
<title>2</title>
<ellipse fill="none" stroke="black" cx="254.77" cy="-164.06" rx="21.24" ry="21.24"/>
<text xml:space="preserve" text-anchor="middle" x="254.77" y="-159.86" font-family="Times,serif" font-size="14.00">S2</text>
</g>
<!-- 3 -->
<g id="node7" class="node">
<title>3</title>
<ellipse fill="none" stroke="black" cx="345.07" cy="-228.06" rx="21.24" ry="21.24"/>
<text xml:space="preserve" text-anchor="middle" x="345.07" y="-223.86" font-family="Times,serif" font-size="14.00">S3</text>
</g>
<!-- 2&#45;&gt;3 -->
<g id="edge3" class="edge">
<title>2-&gt;3</title>
<path fill="none" stroke="black" d="M272.38,-176.1C285.25,-185.43 303.32,-198.52 318.09,-209.23"/>
<polygon fill="black" stroke="black" points="315.86,-211.94 326.01,-214.97 319.97,-206.27 315.86,-211.94"/>
<text xml:space="preserve" text-anchor="middle" x="297.51" y="-200.26" font-family="Times,serif" font-size="14.00">b</text>
</g>
<!-- 4 -->
<g id="node8" class="node">
<title>4</title>
<ellipse fill="none" stroke="black" cx="453.92" cy="-166.06" rx="21.24" ry="21.24"/>
<text xml:space="preserve" text-anchor="middle" x="453.92" y="-161.86" font-family="Times,serif" font-size="14.00">S4</text>
</g>
<!-- 2&#45;&gt;4 -->
<g id="edge4" class="edge">
<title>2-&gt;4</title>
<path fill="none" stroke="black" d="M276.5,-164.27C310.98,-164.62 380.34,-165.33 421.06,-165.74"/>
<polygon fill="black" stroke="black" points="420.92,-169.24 430.96,-165.84 420.99,-162.24 420.92,-169.24"/>
<text xml:space="preserve" text-anchor="middle" x="345.07" y="-169.43" font-family="Times,serif" font-size="14.00">a</text>
</g>
<!-- 5 -->
<g id="node9" class="node">
<title>5</title>
<ellipse fill="none" stroke="black" cx="453.92" cy="-236.06" rx="21.24" ry="21.24"/>
<text xml:space="preserve" text-anchor="middle" x="453.92" y="-231.86" font-family="Times,serif" font-size="14.00">S5</text>
</g>
<!-- 3&#45;&gt;5 -->
<g id="edge5" class="edge">
<title>3-&gt;5</title>
<path fill="none" stroke="black" d="M366.67,-229.61C382.05,-230.76 403.34,-232.35 420.92,-233.67"/>
<polygon fill="black" stroke="black" points="420.64,-237.16 430.87,-234.41 421.16,-230.18 420.64,-237.16"/>
<text xml:space="preserve" text-anchor="middle" x="397.49" y="-236.5" font-family="Times,serif" font-size="14.00">a</text>
</g>
<!-- 6 -->
<g id="node10" class="node">
<title>6</title>
<ellipse fill="none" stroke="black" cx="553.04" cy="-226.06" rx="21.24" ry="21.24"/>
<text xml:space="preserve" text-anchor="middle" x="553.04" y="-221.86" font-family="Times,serif" font-size="14.00">S6</text>
</g>
<!-- 4&#45;&gt;6 -->
<g id="edge15" class="edge">
<title>4-&gt;6</title>
<path fill="none" stroke="black" d="M472.28,-176.79C486.97,-185.86 508.26,-199.02 525.15,-209.45"/>
<polygon fill="black" stroke="black" points="522.87,-212.15 533.22,-214.43 526.55,-206.2 522.87,-212.15"/>
<text xml:space="preserve" text-anchor="middle" x="505.48" y="-202.06" font-family="Times,serif" font-size="14.00">b</text>
</g>
<!-- 8 -->
<g id="node12" class="node">
<title>8</title>
<ellipse fill="none" stroke="black" cx="553.04" cy="-166.06" rx="21.24" ry="21.24"/>
<text xml:space="preserve" text-anchor="middle" x="553.04" y="-161.86" font-family="Times,serif" font-size="14.00">S8</text>
</g>
<!-- 4&#45;&gt;8 -->
<g id="edge16" class="edge">
<title>4-&gt;8</title>
<path fill="none" stroke="black" d="M475.45,-164.19C485.54,-163.47 497.9,-162.9 508.98,-163.26 512.65,-163.38 516.49,-163.56 520.31,-163.77"/>
<polygon fill="black" stroke="black" points="519.76,-167.24 529.96,-164.36 520.19,-160.25 519.76,-167.24"/>
<text xml:space="preserve" text-anchor="middle" x="505.48" y="-167.46" font-family="Times,serif" font-size="14.00">a</text>
</g>
<!-- 5&#45;&gt;6 -->
<g id="edge6" class="edge">
<title>5-&gt;6</title>
<path fill="none" stroke="black" d="M475.51,-233.94C488.52,-232.6 505.59,-230.85 520.3,-229.33"/>
<polygon fill="black" stroke="black" points="520.38,-232.84 529.97,-228.34 519.66,-225.88 520.38,-232.84"/>
<text xml:space="preserve" text-anchor="middle" x="505.48" y="-235.26" font-family="Times,serif" font-size="14.00">a</text>
</g>
<!-- 7 -->
<g id="node11" class="node">
<title>7</title>
<ellipse fill="none" stroke="black" cx="648.17" cy="-166.06" rx="21.24" ry="21.24"/>
<text xml:space="preserve" text-anchor="middle" x="648.17" y="-161.86" font-family="Times,serif" font-size="14.00">S7</text>
</g>
<!-- 6&#45;&gt;7 -->
<g id="edge7" class="edge">
<title>6-&gt;7</title>
<path fill="none" stroke="black" d="M571.56,-214.78C585.22,-205.98 604.43,-193.6 620.07,-183.53"/>
<polygon fill="black" stroke="black" points="621.95,-186.48 628.46,-178.12 618.16,-180.59 621.95,-186.48"/>
<text xml:space="preserve" text-anchor="middle" x="600.61" y="-202.06" font-family="Times,serif" font-size="14.00">a</text>
</g>
<!-- 14 -->
<g id="node17" class="node">
<title>14</title>
<ellipse fill="none" stroke="black" cx="742.52" cy="-133.06" rx="26.06" ry="26.06"/>
<text xml:space="preserve" text-anchor="middle" x="742.52" y="-128.86" font-family="Times,serif" font-size="14.00">S14</text>
</g>
<!-- 7&#45;&gt;14 -->
<g id="edge8" class="edge">
<title>7-&gt;14</title>
<path fill="none" stroke="black" d="M668.31,-159.23C679.45,-155.24 693.84,-150.1 706.9,-145.43"/>
<polygon fill="black" stroke="black" points="707.81,-148.83 716.04,-142.17 705.45,-142.24 707.81,-148.83"/>
<text xml:space="preserve" text-anchor="middle" x="695.34" y="-154.75" font-family="Times,serif" font-size="14.00">a</text>
</g>
<!-- 8&#45;&gt;7 -->
<g id="edge17" class="edge">
<title>8-&gt;7</title>
<path fill="none" stroke="black" d="M574.71,-166.06C586.65,-166.06 601.91,-166.06 615.35,-166.06"/>
<polygon fill="black" stroke="black" points="615.05,-169.56 625.05,-166.06 615.05,-162.56 615.05,-169.56"/>
<text xml:space="preserve" text-anchor="middle" x="600.61" y="-170.26" font-family="Times,serif" font-size="14.00">b</text>
</g>
<!-- 9 -->
<g id="node13" class="node">
<title>9</title>
<ellipse fill="none" stroke="black" cx="254.77" cy="-67.06" rx="21.24" ry="21.24"/>
<text xml:space="preserve" text-anchor="middle" x="254.77" y="-62.86" font-family="Times,serif" font-size="14.00">S9</text>
</g>
<!-- 10 -->
<g id="node14" class="node">
<title>10</title>
<ellipse fill="none" stroke="black" cx="345.07" cy="-50.06" rx="26.06" ry="26.06"/>
<text xml:space="preserve" text-anchor="middle" x="345.07" y="-45.86" font-family="Times,serif" font-size="14.00">S10</text>
</g>
<!-- 9&#45;&gt;10 -->
<g id="edge22" class="edge">
<title>9-&gt;10</title>
<path fill="none" stroke="black" d="M275.81,-63.21C285.33,-61.37 297,-59.13 307.98,-57.01"/>
<polygon fill="black" stroke="black" points="308.42,-60.49 317.58,-55.17 307.09,-53.62 308.42,-60.49"/>
<text xml:space="preserve" text-anchor="middle" x="297.51" y="-63.78" font-family="Times,serif" font-size="14.00">a</text>
</g>
<!-- 10&#45;&gt;11 -->
<g id="edge23" class="edge">
<title>10-&gt;11</title>
<path fill="none" stroke="black" d="M371.39,-47.22C383.64,-45.85 398.64,-44.16 412.42,-42.61"/>
<polygon fill="black" stroke="black" points="412.57,-46.12 422.11,-41.52 411.78,-39.16 412.57,-46.12"/>
<text xml:space="preserve" text-anchor="middle" x="397.49" y="-49.34" font-family="Times,serif" font-size="14.00">a,b</text>
</g>
<!-- 12&#45;&gt;11 -->
<g id="edge27" class="edge">
<title>12-&gt;11</title>
<path fill="none" stroke="black" d="M532.8,-46.06C525.79,-40.91 517.49,-35.92 508.98,-33.26 504.48,-31.86 499.67,-31.19 494.84,-31.01"/>
<polygon fill="black" stroke="black" points="495.08,-27.5 485.21,-31.36 495.33,-34.5 495.08,-27.5"/>
<text xml:space="preserve" text-anchor="middle" x="505.48" y="-37.46" font-family="Times,serif" font-size="14.00">b</text>
</g>
<!-- 13 -->
<g id="node16" class="node">
<title>13</title>
<ellipse fill="none" stroke="black" cx="648.17" cy="-26.06" rx="26.06" ry="26.06"/>
<text xml:space="preserve" text-anchor="middle" x="648.17" y="-21.86" font-family="Times,serif" font-size="14.00">S13</text>
</g>
<!-- 12&#45;&gt;13 -->
<g id="edge25" class="edge">
<title>12-&gt;13</title>
<path fill="none" stroke="black" d="M577.54,-53.73C588.27,-49.47 601.18,-44.34 612.96,-39.66"/>
<polygon fill="black" stroke="black" points="613.95,-43.03 621.95,-36.09 611.36,-36.53 613.95,-43.03"/>
<text xml:space="preserve" text-anchor="middle" x="600.61" y="-49.87" font-family="Times,serif" font-size="14.00">a</text>
</g>
<!-- 13&#45;&gt;11 -->
<g id="edge26" class="edge">
<title>13-&gt;11</title>
<path fill="none" stroke="black" d="M622.65,-18.75C598.28,-12.49 559.88,-5.34 526.98,-11.26 515.35,-13.36 503.15,-17.2 492.17,-21.35"/>
<polygon fill="black" stroke="black" points="491.05,-18.02 483.05,-24.97 493.64,-24.53 491.05,-18.02"/>
<text xml:space="preserve" text-anchor="middle" x="553.04" y="-15.46" font-family="Times,serif" font-size="14.00">b</text>
</g>
<!-- 14&#45;&gt;2 -->
<g id="edge9" class="edge">
<title>14-&gt;2</title>
<path fill="none" stroke="black" d="M717.02,-126.46C698.53,-122.06 672.44,-117.06 649.17,-117.06 344.07,-117.06 344.07,-117.06 344.07,-117.06 320.19,-117.06 296.48,-130.63 279.66,-143.18"/>
<polygon fill="black" stroke="black" points="277.93,-140.09 272.25,-149.03 282.27,-145.58 277.93,-140.09"/>
<text xml:space="preserve" text-anchor="middle" x="505.48" y="-121.26" font-family="Times,serif" font-size="14.00">a</text>
</g>
<!-- 15 -->
<g id="node19" class="node">
<title>15</title>
<ellipse fill="none" stroke="black" cx="841.99" cy="-133.06" rx="20.69" ry="20.69"/>
<text xml:space="preserve" text-anchor="middle" x="841.99" y="-128.86" font-family="Times,serif" font-size="14.00">15</text>
</g>
<!-- 14&#45;&gt;15 -->
<g id="edge10" class="edge">
<title>14-&gt;15</title>
<path fill="none" stroke="black" d="M768.87,-133.06C781.31,-133.06 796.41,-133.06 809.57,-133.06"/>
<polygon fill="black" stroke="black" points="809.47,-136.56 819.47,-133.06 809.47,-129.56 809.47,-136.56"/>
<text xml:space="preserve" text-anchor="middle" x="794.94" y="-137.26" font-family="Times,serif" font-size="14.00">a,b</text>
</g>
<!-- a1&#45;&gt;2 -->
<g id="edge2" class="edge">
<title>a1-&gt;2</title>
<path fill="none" stroke="black" d="M170.95,-161.63C185.25,-162.05 205.12,-162.63 221.81,-163.12"/>
<polygon fill="black" stroke="black" points="221.66,-166.62 231.76,-163.42 221.87,-159.62 221.66,-166.62"/>
<text xml:space="preserve" text-anchor="middle" x="207.18" y="-167.12" font-family="Times,serif" font-size="14.00">a</text>
</g>
<!-- a1&#45;&gt;9 -->
<g id="edge14" class="edge">
<title>a1-&gt;9</title>
<path fill="none" stroke="black" d="M166.38,-147.6C183,-132.28 210.39,-107.04 230.08,-88.9"/>
<polygon fill="black" stroke="black" points="232.42,-91.5 237.41,-82.15 227.68,-86.35 232.42,-91.5"/>
<text xml:space="preserve" text-anchor="middle" x="207.18" y="-121.08" font-family="Times,serif" font-size="14.00">a,b</text>
</g>
<!-- 16 -->
<g id="node20" class="node">
<title>16</title>
<ellipse fill="none" stroke="black" cx="925.59" cy="-133.06" rx="20.69" ry="20.69"/>
<text xml:space="preserve" text-anchor="middle" x="925.59" y="-128.86" font-family="Times,serif" font-size="14.00">16</text>
</g>
<!-- 15&#45;&gt;16 -->
<g id="edge11" class="edge">
<title>15-&gt;16</title>
<path fill="none" stroke="black" d="M863.16,-133.06C872.25,-133.06 883.19,-133.06 893.31,-133.06"/>
<polygon fill="black" stroke="black" points="893.13,-136.56 903.13,-133.06 893.13,-129.56 893.13,-136.56"/>
<text xml:space="preserve" text-anchor="middle" x="883.79" y="-137.26" font-family="Times,serif" font-size="14.00">a</text>
</g>
<!-- 16&#45;&gt;17 -->
<g id="edge12" class="edge">
<title>16-&gt;17</title>
<path fill="none" stroke="black" d="M946.63,-133.06C958.28,-133.06 973.37,-133.06 987.4,-133.06"/>
<polygon fill="black" stroke="black" points="987.31,-136.56 997.31,-133.06 987.31,-129.56 987.31,-136.56"/>
<text xml:space="preserve" text-anchor="middle" x="972.64" y="-137.26" font-family="Times,serif" font-size="14.00">a,b</text>
</g>
<!-- 18&#45;&gt;9 -->
<g id="edge21" class="edge">
<title>18-&gt;9</title>
<path fill="none" stroke="black" d="M171.91,-67.06C186.21,-67.06 205.69,-67.06 222.06,-67.06"/>
<polygon fill="black" stroke="black" points="221.8,-70.56 231.8,-67.06 221.8,-63.56 221.8,-70.56"/>
<text xml:space="preserve" text-anchor="middle" x="207.18" y="-71.26" font-family="Times,serif" font-size="14.00">a,b</text>
</g>
<!-- 18&#45;&gt;18 -->
<g id="edge20" class="edge">
<title>18-&gt;18</title>
<path fill="none" stroke="black" d="M141.55,-85.78C139.84,-96.18 142.9,-105.76 150.76,-105.76 155.55,-105.76 158.56,-102.2 159.79,-97.07"/>
<polygon fill="black" stroke="black" points="163.28,-97.34 159.94,-87.29 156.29,-97.23 163.28,-97.34"/>
<text xml:space="preserve" text-anchor="middle" x="150.76" y="-109.96" font-family="Times,serif" font-size="14.00">a,b</text>
</g>
<!-- 20&#45;&gt;19 -->
<g id="edge31" class="edge">
<title>20-&gt;19</title>
<path fill="none" stroke="black" d="M236.95,-223.15C230.52,-219.58 222.95,-216.07 215.54,-214.26 207.26,-212.25 198.37,-212.68 189.92,-214.3"/>
<polygon fill="black" stroke="black" points="189.09,-210.9 180.26,-216.76 190.81,-217.69 189.09,-210.9"/>
<text xml:space="preserve" text-anchor="middle" x="207.18" y="-218.46" font-family="Times,serif" font-size="14.00">a</text>
</g>
</g>
</svg>