<svg xmlns="http://www.w3.org/2000/svg" xmlns:xlink="http://www.w3.org/1999/xlink" width="1020pt" height="1178pt" viewBox="0.00 0.00 1020.00 1178.00">
<g id="graph0" class="graph" transform="scale(1 1) rotate(0) translate(4 1174)">
<title>LR_Automaton</title>
<polygon fill="white" stroke="none" points="-4,4 -4,-1174 1016.33,-1174 1016.33,4 -4,4"/>
<!-- 0 -->
<g id="node1" class="node">
<title>0</title>
<ellipse fill="none" stroke="black" cx="27" cy="-490" rx="27" ry="18"/>
<text xml:space="preserve" text-anchor="middle" x="27" y="-485.8" font-family="Times,serif" font-size="14.00">0</text>
</g>
<!-- 1 -->
<g id="node2" class="node">
<title>1</title>
<ellipse fill="none" stroke="black" cx="122.56" cy="-433" rx="27" ry="18"/>
<text xml:space="preserve" text-anchor="middle" x="122.56" y="-428.8" font-family="Times,serif" font-size="14.00">1</text>
</g>
<!-- 0&#45;&gt;1 -->
<g id="edge1" class="edge">
<title>0-&gt;1</title>
<path fill="none" stroke="black" d="M47.39,-478.19C60.35,-470.29 77.64,-459.76 92.26,-450.85"/>
<polygon fill="black" stroke="black" points="93.87,-453.97 100.59,-445.78 90.22,-447.99 93.87,-453.97"/>
<text xml:space="preserve" text-anchor="middle" x="74.78" y="-464.5" font-family="Times,serif" font-size="10.00">S</text>
</g>
<!-- 2 -->
<g id="node3" class="node">
<title>2</title>
<ellipse fill="none" stroke="black" cx="218.67" cy="-433" rx="27" ry="18"/>
<text xml:space="preserve" text-anchor="middle" x="218.67" y="-428.8" font-family="Times,serif" font-size="14.00">2</text>
</g>
<!-- 0&#45;&gt;2 -->
<g id="edge2" class="edge">
<title>0-&gt;2</title>
<path fill="none" stroke="black" d="M52.97,-483.99C60.84,-482.09 69.57,-479.97 77.56,-478 109.59,-470.12 118.16,-470.1 149.56,-460 161.28,-456.23 173.86,-451.46 184.99,-446.97"/>
<polygon fill="black" stroke="black" points="186.23,-450.25 194.15,-443.21 183.57,-443.77 186.23,-450.25"/>
<text xml:space="preserve" text-anchor="middle" x="122.56" y="-476.71" font-family="Times,serif" font-size="10.00">T</text>
</g>
<!-- 3 -->
<g id="node4" class="node">
<title>3</title>
<ellipse fill="none" stroke="black" cx="314.78" cy="-545" rx="27" ry="18"/>
<text xml:space="preserve" text-anchor="middle" x="314.78" y="-540.8" font-family="Times,serif" font-size="14.00">3</text>
</g>
<!-- 0&#45;&gt;3 -->
<g id="edge3" class="edge">
<title>0-&gt;3</title>
<path fill="none" stroke="black" d="M53.36,-494.88C104.2,-504.67 218.74,-526.71 277.5,-538.02"/>
<polygon fill="black" stroke="black" points="276.51,-541.39 286.99,-539.84 277.83,-534.52 276.51,-541.39"/>
<text xml:space="preserve" text-anchor="middle" x="170.62" y="-520.5" font-family="Times,serif" font-size="10.00">a</text>
</g>
<!-- 4 -->
<g id="node5" class="node">
<title>4</title>
<ellipse fill="none" stroke="black" cx="505.89" cy="-324" rx="27" ry="18"/>
<text xml:space="preserve" text-anchor="middle" x="505.89" y="-319.8" font-family="Times,serif" font-size="14.00">4</text>
</g>
<!-- 0&#45;&gt;4 -->
<g id="edge4" class="edge">
<title>0-&gt;4</title>
<path fill="none" stroke="black" d="M27.53,-471.69C25.71,-382.73 23.59,0 121.56,0 121.56,0 121.56,0 363.28,0 491.15,0 504.68,-214.52 505.29,-294.45"/>
<polygon fill="black" stroke="black" points="501.79,-294.14 505.29,-304.14 508.79,-294.14 501.79,-294.14"/>
<text xml:space="preserve" text-anchor="middle" x="266.72" y="-3" font-family="Times,serif" font-size="10.00">b</text>
</g>
<!-- 1&#45;&gt;2 -->
<g id="edge6" class="edge">
<title>1-&gt;2</title>
<path fill="none" stroke="black" d="M150.03,-433C159.33,-433 169.96,-433 180,-433"/>
<polygon fill="black" stroke="black" points="179.89,-436.5 189.89,-433 179.89,-429.5 179.89,-436.5"/>
<text xml:space="preserve" text-anchor="middle" x="170.62" y="-436" font-family="Times,serif" font-size="10.00">T</text>
</g>
<!-- 1&#45;&gt;3 -->
<g id="edge7" class="edge">
<title>1-&gt;3</title>
<path fill="none" stroke="black" d="M143.56,-444.77C177.09,-464.52 244.84,-504.41 284,-527.46"/>
<polygon fill="black" stroke="black" points="282.07,-530.39 292.46,-532.45 285.62,-524.36 282.07,-530.39"/>
<text xml:space="preserve" text-anchor="middle" x="218.67" y="-506.78" font-family="Times,serif" font-size="10.00">a</text>
</g>
<!-- 1&#45;&gt;4 -->
<g id="edge8" class="edge">
<title>1-&gt;4</title>
<path fill="none" stroke="black" d="M124.88,-414.77C130.11,-357.6 154.82,-181.43 263.67,-110 360.52,-46.44 458.41,-225.46 492.37,-296.42"/>
<polygon fill="black" stroke="black" points="489.2,-297.9 496.62,-305.46 495.53,-294.92 489.2,-297.9"/>
<text xml:space="preserve" text-anchor="middle" x="314.78" y="-107.57" font-family="Times,serif" font-size="10.00">b</text>
</g>
<!-- 5 -->
<g id="node6" class="node">
<title>5</title>
<ellipse fill="none" stroke="black" cx="985.33" cy="-203" rx="27" ry="18"/>
<text xml:space="preserve" text-anchor="middle" x="985.33" y="-198.8" font-family="Times,serif" font-size="14.00">5</text>
</g>
<!-- 1&#45;&gt;5 -->
<g id="edge5" class="edge">
<title>1-&gt;5</title>
<path fill="none" stroke="black" d="M123.94,-414.74C126.02,-337.06 139.16,-38 217.67,-38 217.67,-38 217.67,-38 890.77,-38 952.27,-38 973.83,-125.8 981,-173.31"/>
<polygon fill="black" stroke="black" points="977.53,-173.78 982.36,-183.21 984.47,-172.83 977.53,-173.78"/>
<text xml:space="preserve" text-anchor="middle" x="553.94" y="-41" font-family="Times,serif" font-size="10.00">S</text>
</g>
<!-- 2&#45;&gt;3 -->
<g id="edge11" class="edge">
<title>2-&gt;3</title>
<path fill="none" stroke="black" d="M245.11,-428.13C253.6,-427.83 262.7,-429.09 269.78,-434 296.21,-452.35 306.77,-489.25 310.98,-515.47"/>
<polygon fill="black" stroke="black" points="307.48,-515.72 312.3,-525.16 314.42,-514.78 307.48,-515.72"/>
<text xml:space="preserve" text-anchor="middle" x="266.72" y="-437" font-family="Times,serif" font-size="10.00">a</text>
</g>
<!-- 2&#45;&gt;4 -->
<g id="edge12" class="edge">
<title>2-&gt;4</title>
<path fill="none" stroke="black" d="M230.99,-416.81C238.99,-406.53 250.59,-393.75 263.67,-386 328.93,-347.33 418.03,-332.54 467.64,-327.07"/>
<polygon fill="black" stroke="black" points="467.69,-330.58 477.28,-326.08 466.97,-323.62 467.69,-330.58"/>
<text xml:space="preserve" text-anchor="middle" x="362.28" y="-350.04" font-family="Times,serif" font-size="10.00">b</text>
</g>
<!-- 7 -->
<g id="node7" class="node">
<title>7</title>
<ellipse fill="none" stroke="black" cx="889.77" cy="-359" rx="27" ry="18"/>
<text xml:space="preserve" text-anchor="middle" x="889.77" y="-354.8" font-family="Times,serif" font-size="14.00">7</text>
</g>
<!-- 2&#45;&gt;7 -->
<g id="edge9" class="edge">
<title>2-&gt;7</title>
<path fill="none" stroke="black" d="M220.48,-414.88C223.14,-363.76 233.22,-219.98 263.67,-186 300.6,-144.78 449.54,-124 504.89,-124 504.89,-124 504.89,-124 747.16,-124 799.28,-124 814.56,-146.53 844.77,-189 875.02,-231.52 884.49,-293.17 887.44,-329.37"/>
<polygon fill="black" stroke="black" points="883.94,-329.36 888.11,-339.09 890.92,-328.88 883.94,-329.36"/>
<text xml:space="preserve" text-anchor="middle" x="553.94" y="-127" font-family="Times,serif" font-size="10.00">S</text>
</g>
<!-- 6 -->
<g id="node8" class="node">
<title>6</title>
<ellipse fill="none" stroke="black" cx="698.1" cy="-402" rx="27" ry="18"/>
<text xml:space="preserve" text-anchor="middle" x="698.1" y="-397.8" font-family="Times,serif" font-size="14.00">6</text>
</g>
<!-- 2&#45;&gt;6 -->
<g id="edge10" class="edge">
<title>2-&gt;6</title>
<path fill="none" stroke="black" d="M239.89,-421.46C258.48,-411.94 287.12,-400 313.78,-400 313.78,-400 313.78,-400 603,-400 621.58,-400 642.23,-400.39 659.44,-400.83"/>
<polygon fill="black" stroke="black" points="659.14,-404.33 669.23,-401.1 659.33,-397.33 659.14,-404.33"/>
<text xml:space="preserve" text-anchor="middle" x="457.83" y="-403" font-family="Times,serif" font-size="10.00">T</text>
</g>
<!-- 3&#45;&gt;2 -->
<g id="edge14" class="edge">
<title>3-&gt;2</title>
<path fill="none" stroke="black" d="M306.34,-527.65C298.76,-511.3 285.85,-486.74 269.78,-469 263.71,-462.3 256.2,-456.11 248.85,-450.82"/>
<polygon fill="black" stroke="black" points="251.25,-448.21 241.01,-445.47 247.31,-454 251.25,-448.21"/>
<text xml:space="preserve" text-anchor="middle" x="266.72" y="-472" font-family="Times,serif" font-size="10.00">T</text>
</g>
<!-- 3&#45;&gt;3 -->
<g id="edge15" class="edge">
<title>3-&gt;3</title>
<path fill="none" stroke="black" d="M306.3,-562.41C304.72,-572.09 307.54,-581 314.78,-581 318.96,-581 321.67,-578.02 322.91,-573.64"/>
<polygon fill="black" stroke="black" points="326.4,-574.03 323.21,-563.92 319.4,-573.81 326.4,-574.03"/>
<text xml:space="preserve" text-anchor="middle" x="314.78" y="-584" font-family="Times,serif" font-size="10.00">a</text>
</g>
<!-- 8 -->
<g id="node9" class="node">
<title>8</title>
<ellipse fill="none" stroke="black" cx="889.77" cy="-995" rx="27" ry="18"/>
<text xml:space="preserve" text-anchor="middle" x="889.77" y="-990.8" font-family="Times,serif" font-size="14.00">8</text>
</g>
<!-- 3&#45;&gt;8 -->
<g id="edge13" class="edge">
<title>3-&gt;8</title>
<path fill="none" stroke="black" d="M315.4,-563.38C314.32,-637.81 314.96,-914.9 382.78,-958 460.28,-1007.24 747.17,-1000.82 850.97,-996.74"/>
<polygon fill="black" stroke="black" points="851.06,-1000.24 860.91,-996.33 850.77,-993.24 851.06,-1000.24"/>
<text xml:space="preserve" text-anchor="middle" x="602" y="-1001.12" font-family="Times,serif" font-size="10.00">S</text>
</g>
<!-- 9 -->
<g id="node10" class="node">
<title>9</title>
<ellipse fill="none" stroke="black" cx="409.78" cy="-736" rx="27" ry="18"/>
<text xml:space="preserve" text-anchor="middle" x="409.78" y="-731.8" font-family="Times,serif" font-size="14.00">9</text>
</g>
<!-- 3&#45;&gt;9 -->
<g id="edge16" class="edge">
<title>3-&gt;9</title>
<path fill="none" stroke="black" d="M316.68,-562.99C319.08,-594.46 327.84,-660.3 359.78,-704 364.45,-710.39 370.82,-715.86 377.42,-720.37"/>
<polygon fill="black" stroke="black" points="375.44,-723.26 385.79,-725.5 379.1,-717.29 375.44,-723.26"/>
<text xml:space="preserve" text-anchor="middle" x="362.28" y="-711.85" font-family="Times,serif" font-size="10.00">b</text>
</g>
<!-- 4&#45;&gt;4 -->
<g id="edge20" class="edge">
<title>4-&gt;4</title>
<path fill="none" stroke="black" d="M497.31,-341.41C495.71,-351.09 498.57,-360 505.89,-360 510.12,-360 512.86,-357.02 514.11,-352.64"/>
<polygon fill="black" stroke="black" points="517.6,-353.03 514.42,-342.92 510.6,-352.81 517.6,-353.03"/>
<text xml:space="preserve" text-anchor="middle" x="505.89" y="-363" font-family="Times,serif" font-size="10.00">b</text>
</g>
<!-- 4&#45;&gt;7 -->
<g id="edge17" class="edge">
<title>4-&gt;7</title>
<path fill="none" stroke="black" d="M513.85,-306.54C520.79,-291.72 533.02,-271.42 550.89,-262 619.39,-225.89 647.93,-253.6 725.1,-260 778.84,-264.46 800.7,-248.93 844.77,-280 861.93,-292.1 873.17,-313.11 879.99,-330.42"/>
<polygon fill="black" stroke="black" points="876.65,-331.49 883.34,-339.71 883.24,-329.12 876.65,-331.49"/>
<text xml:space="preserve" text-anchor="middle" x="698.1" y="-263" font-family="Times,serif" font-size="10.00">S</text>
</g>
<!-- 10 -->
<g id="node11" class="node">
<title>10</title>
<ellipse fill="none" stroke="black" cx="602" cy="-646" rx="27" ry="18"/>
<text xml:space="preserve" text-anchor="middle" x="602" y="-641.8" font-family="Times,serif" font-size="14.00">10</text>
</g>
<!-- 4&#45;&gt;10 -->
<g id="edge18" class="edge">
<title>4-&gt;10</title>
<path fill="none" stroke="black" d="M513.62,-341.31C523.82,-367.87 543.41,-420.4 557,-466 559.16,-473.28 582.09,-567.85 593.96,-616.9"/>
<polygon fill="black" stroke="black" points="590.55,-617.67 596.3,-626.56 597.35,-616.02 590.55,-617.67"/>
<text xml:space="preserve" text-anchor="middle" x="553.94" y="-469" font-family="Times,serif" font-size="10.00">T</text>
</g>
<!-- 11 -->
<g id="node12" class="node">
<title>11</title>
<ellipse fill="none" stroke="black" cx="794.21" cy="-910" rx="27" ry="18"/>
<text xml:space="preserve" text-anchor="middle" x="794.21" y="-905.8" font-family="Times,serif" font-size="14.00">11</text>
</g>
<!-- 4&#45;&gt;11 -->
<g id="edge19" class="edge">
<title>4-&gt;11</title>
<path fill="none" stroke="black" d="M512.38,-341.89C518.28,-361.76 527.53,-394.89 532.89,-424 546.26,-496.71 534.35,-692.25 575,-754 624.95,-829.9 679.42,-802.81 749.21,-861 757.85,-868.2 766.35,-877.11 773.54,-885.35"/>
<polygon fill="black" stroke="black" points="770.67,-887.37 779.8,-892.75 776.02,-882.85 770.67,-887.37"/>
<text xml:space="preserve" text-anchor="middle" x="650.05" y="-816.21" font-family="Times,serif" font-size="10.00">a</text>
</g>
<!-- 5&#45;&gt;2 -->
<g id="edge22" class="edge">
<title>5-&gt;2</title>
<path fill="none" stroke="black" d="M979.42,-185.18C969.06,-151.99 941.63,-84 890.77,-84 649.05,-84 649.05,-84 649.05,-84 485.66,-84 330.32,-118.71 287.78,-145 272.93,-154.18 270.71,-160.03 263.67,-176 229.66,-253.13 221.85,-354.04 220.11,-403.32"/>
<polygon fill="black" stroke="black" points="216.62,-403.08 219.84,-413.17 223.62,-403.28 216.62,-403.08"/>
<text xml:space="preserve" text-anchor="middle" x="602" y="-89.27" font-family="Times,serif" font-size="10.00">T</text>
</g>
<!-- 5&#45;&gt;3 -->
<g id="edge23" class="edge">
<title>5-&gt;3</title>
<path fill="none" stroke="black" d="M980.3,-220.99C972.1,-255.09 951.3,-330.7 916.77,-386 884.21,-438.14 874.67,-455.64 821.21,-486 783.11,-507.64 767.87,-498.43 725.1,-508 682.44,-517.54 672.18,-522.17 629,-529 544.2,-542.41 522.27,-540.21 436.78,-548 402.59,-551.11 393.93,-557.46 359.78,-554 357.26,-553.74 354.67,-553.41 352.07,-553.02"/>
<polygon fill="black" stroke="black" points="352.72,-549.58 342.26,-551.29 351.5,-556.47 352.72,-549.58"/>
<text xml:space="preserve" text-anchor="middle" x="650.05" y="-528.89" font-family="Times,serif" font-size="10.00">a</text>
</g>
<!-- 5&#45;&gt;4 -->
<g id="edge24" class="edge">
<title>5-&gt;4</title>
<path fill="none" stroke="black" d="M958.1,-201.26C891.87,-197.73 713.35,-193.63 575,-240 548.77,-248.79 530.17,-275.28 519.11,-296.19"/>
<polygon fill="black" stroke="black" points="515.98,-294.62 514.68,-305.13 522.25,-297.72 515.98,-294.62"/>
<text xml:space="preserve" text-anchor="middle" x="746.16" y="-208.86" font-family="Times,serif" font-size="10.00">b</text>
</g>
<!-- 5&#45;&gt;5 -->
<g id="edge21" class="edge">
<title>5-&gt;5</title>
<path fill="none" stroke="black" d="M976.8,-220.41C975.21,-230.09 978.06,-239 985.33,-239 989.54,-239 992.27,-236.02 993.51,-231.64"/>
<polygon fill="black" stroke="black" points="997,-232.03 993.82,-221.92 990,-231.81 997,-232.03"/>
<text xml:space="preserve" text-anchor="middle" x="985.33" y="-242" font-family="Times,serif" font-size="10.00">S</text>
</g>
<!-- 7&#45;&gt;2 -->
<g id="edge30" class="edge">
<title>7-&gt;2</title>
<path fill="none" stroke="black" d="M882.64,-341.23C875.58,-322.56 862.62,-293.04 844.77,-272 780.73,-196.49 750.06,-162 651.05,-162 504.89,-162 504.89,-162 504.89,-162 364.52,-162 265.71,-336.64 232.2,-405.53"/>
<polygon fill="black" stroke="black" points="229.18,-403.74 228.03,-414.27 235.5,-406.75 229.18,-403.74"/>
<text xml:space="preserve" text-anchor="middle" x="553.94" y="-165" font-family="Times,serif" font-size="10.00">T</text>
</g>
<!-- 7&#45;&gt;3 -->
<g id="edge31" class="edge">
<title>7-&gt;3</title>
<path fill="none" stroke="black" d="M882.62,-376.83C873.33,-400.85 853.33,-443.01 821.21,-464 781.92,-489.69 463.15,-528.15 353.03,-540.8"/>
<polygon fill="black" stroke="black" points="352.89,-537.3 343.35,-541.91 353.69,-544.25 352.89,-537.3"/>
<text xml:space="preserve" text-anchor="middle" x="602" y="-515.58" font-family="Times,serif" font-size="10.00">a</text>
</g>
<!-- 7&#45;&gt;4 -->
<g id="edge32" class="edge">
<title>7-&gt;4</title>
<path fill="none" stroke="black" d="M863,-355.78C816.38,-350.05 714.89,-338.04 629,-331 600.62,-328.68 568.48,-326.87 544.3,-325.67"/>
<polygon fill="black" stroke="black" points="544.78,-322.19 534.63,-325.2 544.45,-329.18 544.78,-322.19"/>
<text xml:space="preserve" text-anchor="middle" x="698.1" y="-342.92" font-family="Times,serif" font-size="10.00">b</text>
</g>
<!-- 7&#45;&gt;5 -->
<g id="edge29" class="edge">
<title>7-&gt;5</title>
<path fill="none" stroke="black" d="M900.79,-342.31C917.04,-315.21 949.27,-261.46 968.61,-229.22"/>
<polygon fill="black" stroke="black" points="971.47,-231.25 973.62,-220.87 965.47,-227.65 971.47,-231.25"/>
<text xml:space="preserve" text-anchor="middle" x="937.55" y="-284" font-family="Times,serif" font-size="10.00">S</text>
</g>
<!-- 6&#45;&gt;3 -->
<g id="edge27" class="edge">
<title>6-&gt;3</title>
<path fill="none" stroke="black" d="M672.93,-408.71C666.49,-410.47 659.54,-412.33 653.1,-414 523.16,-447.66 471.67,-411.83 359.78,-486 347.59,-494.08 337.5,-506.73 330.07,-518.25"/>
<polygon fill="black" stroke="black" points="327.18,-516.27 325.03,-526.64 333.18,-519.87 327.18,-516.27"/>
<text xml:space="preserve" text-anchor="middle" x="505.89" y="-440.32" font-family="Times,serif" font-size="10.00">a</text>
</g>
<!-- 6&#45;&gt;4 -->
<g id="edge28" class="edge">
<title>6-&gt;4</title>
<path fill="none" stroke="black" d="M674.4,-392.66C661.16,-387.21 644.13,-380.21 629,-374 598.85,-361.63 564.52,-347.58 539.95,-337.52"/>
<polygon fill="black" stroke="black" points="541.38,-334.33 530.8,-333.78 538.73,-340.81 541.38,-334.33"/>
<text xml:space="preserve" text-anchor="middle" x="602" y="-377" font-family="Times,serif" font-size="10.00">b</text>
</g>
<!-- 6&#45;&gt;7 -->
<g id="edge25" class="edge">
<title>6-&gt;7</title>
<path fill="none" stroke="black" d="M718.55,-389.73C731.74,-382.07 749.88,-372.77 767.21,-368 794.74,-360.43 827.02,-358.34 851.39,-358.05"/>
<polygon fill="black" stroke="black" points="851.16,-361.55 861.15,-358.04 851.15,-354.55 851.16,-361.55"/>
<text xml:space="preserve" text-anchor="middle" x="794.21" y="-371" font-family="Times,serif" font-size="10.00">S</text>
</g>
<!-- 12 -->
<g id="node13" class="node">
<title>12</title>
<ellipse fill="none" stroke="black" cx="794.21" cy="-407" rx="27" ry="18"/>
<text xml:space="preserve" text-anchor="middle" x="794.21" y="-402.8" font-family="Times,serif" font-size="14.00">12</text>
</g>
<!-- 6&#45;&gt;12 -->
<g id="edge26" class="edge">
<title>6-&gt;12</title>
<path fill="none" stroke="black" d="M725.32,-403.39C734.62,-403.89 745.29,-404.45 755.37,-404.99"/>
<polygon fill="black" stroke="black" points="755.13,-408.48 765.3,-405.52 755.5,-401.49 755.13,-408.48"/>
<text xml:space="preserve" text-anchor="middle" x="746.16" y="-407.65" font-family="Times,serif" font-size="10.00">T</text>
</g>
<!-- 8&#45;&gt;2 -->
<g id="edge34" class="edge">
<title>8-&gt;2</title>
<path fill="none" stroke="black" d="M869.29,-1007.08C819.17,-1036.97 680.84,-1112 554.94,-1112 313.78,-1112 313.78,-1112 313.78,-1112 202.64,-1112 272.84,-977.76 263.67,-867 256.38,-778.99 274.2,-553.58 245.67,-470 244.23,-465.77 242.14,-461.6 239.77,-457.66"/>
<polygon fill="black" stroke="black" points="242.88,-456 234.35,-449.72 237.1,-459.95 242.88,-456"/>
<text xml:space="preserve" text-anchor="middle" x="553.94" y="-1115" font-family="Times,serif" font-size="10.00">T</text>
</g>
<!-- 8&#45;&gt;4 -->
<g id="edge36" class="edge">
<title>8-&gt;4</title>
<path fill="none" stroke="black" d="M881.68,-977.54C864.44,-936.96 816.78,-835.05 749.21,-773 688.9,-717.61 628.52,-774.98 575,-713 554.07,-688.77 538.92,-459.44 532.89,-428 527.96,-402.37 520.63,-373.6 515.01,-352.83"/>
<polygon fill="black" stroke="black" points="518.43,-352.08 512.4,-343.36 511.68,-353.93 518.43,-352.08"/>
<text xml:space="preserve" text-anchor="middle" x="698.1" y="-759.13" font-family="Times,serif" font-size="10.00">b</text>
</g>
<!-- 8&#45;&gt;5 -->
<g id="edge33" class="edge">
<title>8-&gt;5</title>
<path fill="none" stroke="black" d="M894.19,-976.84C902.95,-929.69 926.53,-799.37 940.33,-690 962.14,-517.27 977.25,-308.75 982.39,-232.63"/>
<polygon fill="black" stroke="black" points="985.88,-232.9 983.06,-222.69 978.9,-232.44 985.88,-232.9"/>
<text xml:space="preserve" text-anchor="middle" x="937.55" y="-726.22" font-family="Times,serif" font-size="10.00">S</text>
</g>
<!-- 13 -->
<g id="node14" class="node">
<title>13</title>
<ellipse fill="none" stroke="black" cx="985.33" cy="-1030" rx="27" ry="18"/>
<text xml:space="preserve" text-anchor="middle" x="985.33" y="-1025.8" font-family="Times,serif" font-size="14.00">13</text>
</g>
<!-- 8&#45;&gt;13 -->
<g id="edge35" class="edge">
<title>8-&gt;13</title>
<path fill="none" stroke="black" d="M916.8,-992.46C924.55,-992.52 932.95,-993.4 940.33,-996 947.8,-998.63 954.99,-1003.06 961.33,-1007.87"/>
<polygon fill="black" stroke="black" points="958.83,-1010.35 968.76,-1014.06 963.31,-1004.97 958.83,-1010.35"/>
<text xml:space="preserve" text-anchor="middle" x="937.55" y="-999" font-family="Times,serif" font-size="10.00">a</text>
</g>
<!-- 9&#45;&gt;4 -->
<g id="edge40" class="edge">
<title>9-&gt;4</title>
<path fill="none" stroke="black" d="M411.19,-717.61C412.95,-651.69 421.31,-427.88 454.78,-366 459.76,-356.79 467.66,-348.76 475.73,-342.26"/>
<polygon fill="black" stroke="black" points="477.58,-345.24 483.55,-336.49 473.42,-339.61 477.58,-345.24"/>
<text xml:space="preserve" text-anchor="middle" x="457.83" y="-369" font-family="Times,serif" font-size="10.00">b</text>
</g>
<!-- 9&#45;&gt;7 -->
<g id="edge37" class="edge">
<title>9-&gt;7</title>
<path fill="none" stroke="black" d="M417.44,-718.41C424.39,-702.42 436.8,-679.35 454.78,-666 492.6,-637.93 516.59,-662.21 557,-638 566.97,-632.02 565.38,-625.55 575,-619 681.86,-546.17 758.04,-605.92 844.77,-510 875.44,-476.09 884.81,-421.94 887.63,-388.54"/>
<polygon fill="black" stroke="black" points="891.11,-388.97 888.29,-378.75 884.12,-388.49 891.11,-388.97"/>
<text xml:space="preserve" text-anchor="middle" x="650.05" y="-588.27" font-family="Times,serif" font-size="10.00">S</text>
</g>
<!-- 9&#45;&gt;10 -->
<g id="edge38" class="edge">
<title>9-&gt;10</title>
<path fill="none" stroke="black" d="M437.05,-735.91C468.17,-734.6 520.4,-728.52 557,-704 568.67,-696.18 566.56,-689.24 575,-678 576.83,-675.56 578.77,-673.05 580.73,-670.55"/>
<polygon fill="black" stroke="black" points="583.31,-672.93 586.84,-662.94 577.85,-668.55 583.31,-672.93"/>
<text xml:space="preserve" text-anchor="middle" x="505.89" y="-734.62" font-family="Times,serif" font-size="10.00">T</text>
</g>
<!-- 9&#45;&gt;11 -->
<g id="edge39" class="edge">
<title>9-&gt;11</title>
<path fill="none" stroke="black" d="M412.14,-754.29C416.58,-798.97 434.65,-910 504.89,-910 504.89,-910 504.89,-910 699.1,-910 717.69,-910 738.34,-910 755.55,-910"/>
<polygon fill="black" stroke="black" points="755.33,-913.5 765.33,-910 755.33,-906.5 755.33,-913.5"/>
<text xml:space="preserve" text-anchor="middle" x="602" y="-913" font-family="Times,serif" font-size="10.00">a</text>
</g>
<!-- 10&#45;&gt;3 -->
<g id="edge43" class="edge">
<title>10-&gt;3</title>
<path fill="none" stroke="black" d="M582.13,-658.36C573,-663.06 561.7,-667.06 550.89,-666 464.7,-657.51 429.25,-679.7 359.78,-628 341.9,-614.69 330.57,-591.95 323.9,-573.63"/>
<polygon fill="black" stroke="black" points="327.29,-572.73 320.8,-564.35 320.65,-574.95 327.29,-572.73"/>
<text xml:space="preserve" text-anchor="middle" x="457.83" y="-666.72" font-family="Times,serif" font-size="10.00">a</text>
</g>
<!-- 10&#45;&gt;7 -->
<g id="edge41" class="edge">
<title>10-&gt;7</title>
<path fill="none" stroke="black" d="M629.15,-644.89C685.31,-641.96 814.77,-632.03 844.77,-602 874.34,-572.41 884.4,-446.76 887.51,-388.67"/>
<polygon fill="black" stroke="black" points="890.99,-389.03 888,-378.87 884,-388.68 890.99,-389.03"/>
<text xml:space="preserve" text-anchor="middle" x="746.16" y="-636.79" font-family="Times,serif" font-size="10.00">S</text>
</g>
<!-- 10&#45;&gt;6 -->
<g id="edge42" class="edge">
<title>10-&gt;6</title>
<path fill="none" stroke="black" d="M612.11,-629.04C622.8,-608.73 640.64,-573.5 653.1,-542 668.01,-504.31 681.38,-459.4 689.37,-430.8"/>
<polygon fill="black" stroke="black" points="692.67,-432 691.95,-421.43 685.92,-430.14 692.67,-432"/>
<text xml:space="preserve" text-anchor="middle" x="650.05" y="-559.51" font-family="Times,serif" font-size="10.00">T</text>
</g>
<!-- 14 -->
<g id="node15" class="node">
<title>14</title>
<ellipse fill="none" stroke="black" cx="698.1" cy="-692" rx="27" ry="18"/>
<text xml:space="preserve" text-anchor="middle" x="698.1" y="-687.8" font-family="Times,serif" font-size="14.00">14</text>
</g>
<!-- 10&#45;&gt;14 -->
<g id="edge44" class="edge">
<title>10-&gt;14</title>
<path fill="none" stroke="black" d="M622.35,-658.31C629.9,-662.88 638.71,-667.93 647,-672 652.22,-674.57 657.86,-677.07 663.41,-679.38"/>
<polygon fill="black" stroke="black" points="661.84,-682.52 672.43,-683 664.45,-676.03 661.84,-682.52"/>
<text xml:space="preserve" text-anchor="middle" x="650.05" y="-677.51" font-family="Times,serif" font-size="10.00">b</text>
</g>
<!-- 11&#45;&gt;2 -->
<g id="edge46" class="edge">
<title>11-&gt;2</title>
<path fill="none" stroke="black" d="M777.17,-924.38C731.21,-964.02 593.65,-1072 458.83,-1072 313.78,-1072 313.78,-1072 313.78,-1072 246.46,-1072 269.55,-532.94 245.67,-470 244.09,-465.83 241.92,-461.68 239.52,-457.75"/>
<polygon fill="black" stroke="black" points="242.62,-456.09 234.08,-449.82 236.84,-460.04 242.62,-456.09"/>
<text xml:space="preserve" text-anchor="middle" x="505.89" y="-1073.97" font-family="Times,serif" font-size="10.00">T</text>
</g>
<!-- 11&#45;&gt;3 -->
<g id="edge47" class="edge">
<title>11-&gt;3</title>
<path fill="none" stroke="black" d="M769.67,-918.33C763.11,-920.42 755.94,-922.49 749.21,-924 664.21,-943.06 642.05,-950 554.94,-950 408.78,-950 408.78,-950 408.78,-950 331.8,-950 318.53,-668.53 316.25,-574.89"/>
<polygon fill="black" stroke="black" points="319.75,-574.89 316.04,-564.97 312.75,-575.04 319.75,-574.89"/>
<text xml:space="preserve" text-anchor="middle" x="553.94" y="-953" font-family="Times,serif" font-size="10.00">a</text>
</g>
<!-- 11&#45;&gt;8 -->
<g id="edge45" class="edge">
<title>11-&gt;8</title>
<path fill="none" stroke="black" d="M811.08,-924.42C825.73,-937.73 847.71,-957.69 864.55,-972.99"/>
<polygon fill="black" stroke="black" points="861.95,-975.36 871.7,-979.49 866.66,-970.18 861.95,-975.36"/>
<text xml:space="preserve" text-anchor="middle" x="841.99" y="-955.5" font-family="Times,serif" font-size="10.00">S</text>
</g>
<!-- 11&#45;&gt;9 -->
<g id="edge48" class="edge">
<title>11-&gt;9</title>
<path fill="none" stroke="black" d="M768.03,-904.67C691.67,-888.45 467.21,-840.1 454.78,-830 434.72,-813.7 423.33,-786.15 417.19,-765.08"/>
<polygon fill="black" stroke="black" points="420.62,-764.39 414.68,-755.62 413.86,-766.18 420.62,-764.39"/>
<text xml:space="preserve" text-anchor="middle" x="602" y="-876.92" font-family="Times,serif" font-size="10.00">b</text>
</g>
<!-- 12&#45;&gt;3 -->
<g id="edge51" class="edge">
<title>12-&gt;3</title>
<path fill="none" stroke="black" d="M769.62,-414.8C756.54,-419.09 739.95,-424.44 725.1,-429 650.71,-451.85 632.28,-458.26 557,-478 469.93,-500.82 444.71,-494.22 359.78,-524 355.5,-525.5 351.08,-527.29 346.77,-529.19"/>
<polygon fill="black" stroke="black" points="345.38,-525.98 337.8,-533.37 348.34,-532.32 345.38,-525.98"/>
<text xml:space="preserve" text-anchor="middle" x="553.94" y="-482.27" font-family="Times,serif" font-size="10.00">a</text>
</g>
<!-- 12&#45;&gt;4 -->
<g id="edge52" class="edge">
<title>12-&gt;4</title>
<path fill="none" stroke="black" d="M772.13,-395.99C758.87,-389.34 741.26,-381.02 725.1,-375 663.49,-352.05 588.12,-337.17 544.01,-329.71"/>
<polygon fill="black" stroke="black" points="544.63,-326.27 534.2,-328.1 543.49,-333.18 544.63,-326.27"/>
<text xml:space="preserve" text-anchor="middle" x="650.05" y="-355.66" font-family="Times,serif" font-size="10.00">b</text>
</g>
<!-- 12&#45;&gt;7 -->
<g id="edge49" class="edge">
<title>12-&gt;7</title>
<path fill="none" stroke="black" d="M815.98,-396.35C828.25,-390.05 844.02,-381.96 857.74,-374.92"/>
<polygon fill="black" stroke="black" points="859.1,-378.16 866.4,-370.48 855.9,-371.93 859.1,-378.16"/>
<text xml:space="preserve" text-anchor="middle" x="841.99" y="-386" font-family="Times,serif" font-size="10.00">S</text>
</g>
<!-- 12&#45;&gt;12 -->
<g id="edge50" class="edge">
<title>12-&gt;12</title>
<path fill="none" stroke="black" d="M785.68,-424.41C784.09,-434.09 786.93,-443 794.21,-443 798.42,-443 801.15,-440.02 802.39,-435.64"/>
<polygon fill="black" stroke="black" points="805.88,-436.03 802.69,-425.92 798.88,-435.81 805.88,-436.03"/>
<text xml:space="preserve" text-anchor="middle" x="794.21" y="-446" font-family="Times,serif" font-size="10.00">T</text>
</g>
<!-- 13&#45;&gt;2 -->
<g id="edge54" class="edge">
<title>13-&gt;2</title>
<path fill="none" stroke="black" d="M980.14,-1048.07C970.77,-1083.35 944.59,-1158 890.77,-1158 313.78,-1158 313.78,-1158 313.78,-1158 238.41,-1158 271.9,-1070.91 263.67,-996 257.28,-937.87 264.25,-525.45 245.67,-470 244.25,-465.77 242.18,-461.59 239.81,-457.65"/>
<polygon fill="black" stroke="black" points="242.92,-455.99 234.39,-449.7 237.14,-459.94 242.92,-455.99"/>
<text xml:space="preserve" text-anchor="middle" x="602" y="-1161" font-family="Times,serif" font-size="10.00">T</text>
</g>
<!-- 13&#45;&gt;3 -->
<g id="edge55" class="edge">
<title>13-&gt;3</title>
<path fill="none" stroke="black" d="M973.1,-1046.24C957.31,-1066.91 926.48,-1100 890.77,-1100 745.16,-1100 745.16,-1100 745.16,-1100 660.47,-1100 450.79,-1032.47 382.78,-982 368.42,-971.35 366.05,-965.74 359.78,-949 333.99,-880.19 321.04,-655.87 317.11,-574.68"/>
<polygon fill="black" stroke="black" points="320.61,-574.68 316.64,-564.86 313.62,-575.01 320.61,-574.68"/>
<text xml:space="preserve" text-anchor="middle" x="650.05" y="-1089.56" font-family="Times,serif" font-size="10.00">a</text>
</g>
<!-- 13&#45;&gt;8 -->
<g id="edge53" class="edge">
<title>13-&gt;8</title>
<path fill="none" stroke="black" d="M961.15,-1021.33C950.12,-1017.2 936.72,-1012.19 924.59,-1007.65"/>
<polygon fill="black" stroke="black" points="925.91,-1004.41 915.32,-1004.18 923.46,-1010.96 925.91,-1004.41"/>
<text xml:space="preserve" text-anchor="middle" x="937.55" y="-1015.5" font-family="Times,serif" font-size="10.00">S</text>
</g>
<!-- 13&#45;&gt;9 -->
<g id="edge56" class="edge">
<title>13-&gt;9</title>
<path fill="none" stroke="black" d="M983.54,-1011.87C981,-962.87 971.31,-829.52 940.33,-801 896.07,-760.24 730.92,-778.54 671.1,-772 574.94,-761.49 549.8,-766.11 454.78,-748 451.82,-747.44 448.77,-746.77 445.71,-746.06"/>
<polygon fill="black" stroke="black" points="446.85,-742.73 436.29,-743.66 445.12,-749.52 446.85,-742.73"/>
<text xml:space="preserve" text-anchor="middle" x="698.1" y="-776.61" font-family="Times,serif" font-size="10.00">b</text>
</g>
<!-- 14&#45;&gt;4 -->
<g id="edge60" class="edge">
<title>14-&gt;4</title>
<path fill="none" stroke="black" d="M671.4,-696.3C643.34,-699.38 599.17,-699.15 575,-673 558.63,-655.3 561.01,-589.77 557,-566 546.33,-502.88 546.31,-486.59 532.89,-424 527.72,-399.92 520.62,-372.91 515.14,-353.03"/>
<polygon fill="black" stroke="black" points="518.52,-352.1 512.46,-343.41 511.77,-353.98 518.52,-352.1"/>
<text xml:space="preserve" text-anchor="middle" x="602" y="-699.58" font-family="Times,serif" font-size="10.00">b</text>
</g>
<!-- 14&#45;&gt;7 -->
<g id="edge57" class="edge">
<title>14-&gt;7</title>
<path fill="none" stroke="black" d="M725.22,-689.91C758.45,-685.77 815.07,-673.47 844.77,-637 875.5,-599.27 885.05,-451.98 887.77,-388.44"/>
<polygon fill="black" stroke="black" points="891.26,-388.9 888.16,-378.77 884.26,-388.62 891.26,-388.9"/>
<text xml:space="preserve" text-anchor="middle" x="794.21" y="-684.43" font-family="Times,serif" font-size="10.00">S</text>
</g>
<!-- 14&#45;&gt;10 -->
<g id="edge58" class="edge">
<title>14-&gt;10</title>
<path fill="none" stroke="black" d="M682,-677.12C674.01,-670.04 663.68,-662.03 653.1,-657 649.01,-655.05 644.57,-653.45 640.08,-652.12"/>
<polygon fill="black" stroke="black" points="640.99,-648.74 630.44,-649.74 639.31,-655.54 640.99,-648.74"/>
<text xml:space="preserve" text-anchor="middle" x="650.05" y="-660" font-family="Times,serif" font-size="10.00">T</text>
</g>
<!-- 14&#45;&gt;11 -->
<g id="edge59" class="edge">
<title>14-&gt;11</title>
<path fill="none" stroke="black" d="M713.17,-707.2C717.39,-712.28 721.78,-718.15 725.1,-724 754.74,-776.16 775.61,-843.61 785.9,-881.28"/>
<polygon fill="black" stroke="black" points="782.4,-881.75 788.36,-890.51 789.17,-879.94 782.4,-881.75"/>
<text xml:space="preserve" text-anchor="middle" x="746.16" y="-775.74" font-family="Times,serif" font-size="10.00">a</text>
</g>
</g>
</svg>