<svg xmlns="http://www.w3.org/2000/svg" xmlns:xlink="http://www.w3.org/1999/xlink" width="1218pt" height="478pt" viewBox="0.00 0.00 1218.00 478.00">
<g id="graph0" class="graph" transform="scale(1 1) rotate(0) translate(4 474.49)">
<title>DFA</title>
<polygon fill="white" stroke="none" points="-4,4 -4,-474.49 1213.61,-474.49 1213.61,4 -4,4"/>
<!-- __start__ -->
<g id="node1" class="node">
<title>__start__</title>
<ellipse fill="black" stroke="black" cx="1.8" cy="-20.69" rx="1.8" ry="1.8"/>
</g>
<!-- q0 -->
<g id="node2" class="node">
<title>q0</title>
<ellipse fill="none" stroke="black" cx="61.29" cy="-20.69" rx="20.69" ry="20.69"/>
<text xml:space="preserve" text-anchor="middle" x="61.29" y="-16.49" font-family="Times,serif" font-size="14.00">q0</text>
</g>
<!-- __start__&#45;&gt;q0 -->
<g id="edge1" class="edge">
<title>__start__-&gt;q0</title>
<path fill="none" stroke="black" d="M3.8,-20.69C7.06,-20.69 17.87,-20.69 29.17,-20.69"/>
<polygon fill="black" stroke="black" points="28.86,-24.19 38.86,-20.69 28.86,-17.19 28.86,-24.19"/>
</g>
<!-- q1 -->
<g id="node12" class="node">
<title>q1</title>
<ellipse fill="none" stroke="black" cx="144.89" cy="-136.69" rx="20.69" ry="20.69"/>
<text xml:space="preserve" text-anchor="middle" x="144.89" y="-132.49" font-family="Times,serif" font-size="14.00">q1</text>
</g>
<!-- q0&#45;&gt;q1 -->
<g id="edge2" class="edge">
<title>q0-&gt;q1</title>
<path fill="none" stroke="black" d="M73.98,-37.31C87.5,-56.52 109.9,-88.37 125.7,-110.82"/>
<polygon fill="black" stroke="black" points="122.74,-112.7 131.35,-118.87 128.46,-108.67 122.74,-112.7"/>
<text xml:space="preserve" text-anchor="middle" x="103.09" y="-86.37" font-family="Times,serif" font-size="14.00">a</text>
</g>
<!-- q2 -->
<g id="node13" class="node">
<title>q2</title>
<ellipse fill="none" stroke="black" cx="687.44" cy="-129.69" rx="20.69" ry="20.69"/>
<text xml:space="preserve" text-anchor="middle" x="687.44" y="-125.49" font-family="Times,serif" font-size="14.00">q2</text>
</g>
<!-- q0&#45;&gt;q2 -->
<g id="edge3" class="edge">
<title>q0-&gt;q2</title>
<path fill="none" stroke="black" d="M81.54,-14.74C97.95,-10.19 122.24,-4.69 143.89,-4.69 143.89,-4.69 143.89,-4.69 590.4,-4.69 637.77,-4.69 664.99,-61.84 677.65,-98.85"/>
<polygon fill="black" stroke="black" points="674.26,-99.73 680.66,-108.17 680.92,-97.58 674.26,-99.73"/>
<text xml:space="preserve" text-anchor="middle" x="355.08" y="-8.89" font-family="Times,serif" font-size="14.00">b</text>
</g>
<!-- q6 -->
<g id="node3" class="node">
<title>q6</title>
<ellipse fill="none" stroke="black" cx="402.1" cy="-219.69" rx="20.69" ry="20.69"/>
<ellipse fill="none" stroke="black" cx="402.1" cy="-219.69" rx="24.69" ry="24.69"/>
<text xml:space="preserve" text-anchor="middle" x="402.1" y="-215.49" font-family="Times,serif" font-size="14.00">q6</text>
</g>
<!-- q11 -->
<g id="node18" class="node">
<title>q11</title>
<ellipse fill="none" stroke="black" cx="980" cy="-270.69" rx="25.52" ry="25.52"/>
<text xml:space="preserve" text-anchor="middle" x="980" y="-266.49" font-family="Times,serif" font-size="14.00">q11</text>
</g>
<!-- q6&#45;&gt;q11 -->
<g id="edge12" class="edge">
<title>q6-&gt;q11</title>
<path fill="none" stroke="black" d="M422.46,-234.03C440.36,-245.86 468.2,-260.69 495.14,-260.69 495.14,-260.69 495.14,-260.69 883.74,-260.69 903.43,-260.69 925.28,-262.83 943.08,-265.13"/>
<polygon fill="black" stroke="black" points="942.52,-268.59 952.91,-266.48 943.47,-261.65 942.52,-268.59"/>
<text xml:space="preserve" text-anchor="middle" x="687.44" y="-264.89" font-family="Times,serif" font-size="14.00">a</text>
</g>
<!-- q12 -->
<g id="node19" class="node">
<title>q12</title>
<ellipse fill="none" stroke="black" cx="496.14" cy="-206.69" rx="25.52" ry="25.52"/>
<text xml:space="preserve" text-anchor="middle" x="496.14" y="-202.49" font-family="Times,serif" font-size="14.00">q12</text>
</g>
<!-- q6&#45;&gt;q12 -->
<g id="edge13" class="edge">
<title>q6-&gt;q12</title>
<path fill="none" stroke="black" d="M426.8,-216.35C436.66,-214.95 448.32,-213.31 459.19,-211.77"/>
<polygon fill="black" stroke="black" points="459.64,-215.24 469.06,-210.38 458.66,-208.31 459.64,-215.24"/>
<text xml:space="preserve" text-anchor="middle" x="449.12" y="-217.78" font-family="Times,serif" font-size="14.00">b</text>
</g>
<!-- q7 -->
<g id="node4" class="node">
<title>q7</title>
<ellipse fill="none" stroke="black" cx="402.1" cy="-293.69" rx="20.69" ry="20.69"/>
<ellipse fill="none" stroke="black" cx="402.1" cy="-293.69" rx="24.69" ry="24.69"/>
<text xml:space="preserve" text-anchor="middle" x="402.1" y="-289.49" font-family="Times,serif" font-size="14.00">q7</text>
</g>
<!-- q13 -->
<g id="node20" class="node">
<title>q13</title>
<ellipse fill="none" stroke="black" cx="496.14" cy="-314.69" rx="25.52" ry="25.52"/>
<text xml:space="preserve" text-anchor="middle" x="496.14" y="-310.49" font-family="Times,serif" font-size="14.00">q13</text>
</g>
<!-- q7&#45;&gt;q13 -->
<g id="edge14" class="edge">
<title>q7-&gt;q13</title>
<path fill="none" stroke="black" d="M426.32,-298.99C436.55,-301.33 448.78,-304.12 460.08,-306.69"/>
<polygon fill="black" stroke="black" points="458.95,-310.03 469.48,-308.84 460.51,-303.2 458.95,-310.03"/>
<text xml:space="preserve" text-anchor="middle" x="449.12" y="-309.02" font-family="Times,serif" font-size="14.00">a</text>
</g>
<!-- q9 -->
<g id="node5" class="node">
<title>q9</title>
<ellipse fill="none" stroke="black" cx="882.74" cy="-207.69" rx="20.69" ry="20.69"/>
<ellipse fill="none" stroke="black" cx="882.74" cy="-207.69" rx="24.69" ry="24.69"/>
<text xml:space="preserve" text-anchor="middle" x="882.74" y="-203.49" font-family="Times,serif" font-size="14.00">q9</text>
</g>
<!-- q9&#45;&gt;q11 -->
<g id="edge16" class="edge">
<title>q9-&gt;q11</title>
<path fill="none" stroke="black" d="M906.73,-215.26C916.33,-218.95 927.35,-223.89 936.48,-229.89 942.65,-233.95 948.72,-238.96 954.26,-244.07"/>
<polygon fill="black" stroke="black" points="951.77,-246.53 961.38,-251 956.65,-241.51 951.77,-246.53"/>
<text xml:space="preserve" text-anchor="middle" x="933.37" y="-234.09" font-family="Times,serif" font-size="14.00">a</text>
</g>
<!-- q10 -->
<g id="node6" class="node">
<title>q10</title>
<ellipse fill="none" stroke="black" cx="882.74" cy="-135.69" rx="25.52" ry="25.52"/>
<ellipse fill="none" stroke="black" cx="882.74" cy="-135.69" rx="29.52" ry="29.52"/>
<text xml:space="preserve" text-anchor="middle" x="882.74" y="-131.49" font-family="Times,serif" font-size="14.00">q10</text>
</g>
<!-- q10&#45;&gt;q11 -->
<g id="edge17" class="edge">
<title>q10-&gt;q11</title>
<path fill="none" stroke="black" d="M901.7,-158.82C912.08,-172.38 925.26,-189.93 936.48,-205.89 944.18,-216.85 952.32,-229.08 959.39,-239.94"/>
<polygon fill="black" stroke="black" points="956.35,-241.69 964.73,-248.18 962.23,-237.89 956.35,-241.69"/>
<text xml:space="preserve" text-anchor="middle" x="933.37" y="-210.09" font-family="Times,serif" font-size="14.00">a</text>
</g>
<!-- q16 -->
<g id="node7" class="node">
<title>q16</title>
<ellipse fill="none" stroke="black" cx="1078.05" cy="-354.69" rx="25.52" ry="25.52"/>
<ellipse fill="none" stroke="black" cx="1078.05" cy="-354.69" rx="29.52" ry="29.52"/>
<text xml:space="preserve" text-anchor="middle" x="1078.05" y="-350.49" font-family="Times,serif" font-size="14.00">q16</text>
</g>
<!-- q16&#45;&gt;q11 -->
<g id="edge25" class="edge">
<title>q16-&gt;q11</title>
<path fill="none" stroke="black" d="M1049.93,-344.62C1040.96,-340.51 1031.3,-335.18 1023.52,-328.69 1014.63,-321.27 1006.6,-311.61 999.97,-302.31"/>
<polygon fill="black" stroke="black" points="1002.93,-300.45 994.44,-294.11 997.13,-304.36 1002.93,-300.45"/>
<text xml:space="preserve" text-anchor="middle" x="1027.02" y="-337.74" font-family="Times,serif" font-size="14.00">a</text>
</g>
<!-- q20 -->
<g id="node8" class="node">
<title>q20</title>
<ellipse fill="none" stroke="black" cx="1180.09" cy="-281.69" rx="25.52" ry="25.52"/>
<ellipse fill="none" stroke="black" cx="1180.09" cy="-281.69" rx="29.52" ry="29.52"/>
<text xml:space="preserve" text-anchor="middle" x="1180.09" y="-277.49" font-family="Times,serif" font-size="14.00">q20</text>
</g>
<!-- q20&#45;&gt;q11 -->
<g id="edge31" class="edge">
<title>q20-&gt;q11</title>
<path fill="none" stroke="black" d="M1158.25,-261.13C1144.95,-249.5 1126.67,-236.09 1107.57,-229.89 1082.6,-221.8 1073.8,-222.85 1048.52,-229.89 1034.95,-233.68 1021.38,-241.01 1010.01,-248.42"/>
<polygon fill="black" stroke="black" points="1008.13,-245.46 1001.88,-254.02 1012.1,-251.23 1008.13,-245.46"/>
<text xml:space="preserve" text-anchor="middle" x="1078.05" y="-234.09" font-family="Times,serif" font-size="14.00">a</text>
</g>
<!-- q21 -->
<g id="node9" class="node">
<title>q21</title>
<ellipse fill="none" stroke="black" cx="687.44" cy="-349.69" rx="25.52" ry="25.52"/>
<ellipse fill="none" stroke="black" cx="687.44" cy="-349.69" rx="29.52" ry="29.52"/>
<text xml:space="preserve" text-anchor="middle" x="687.44" y="-345.49" font-family="Times,serif" font-size="14.00">q21</text>
</g>
<!-- q23 -->
<g id="node27" class="node">
<title>q23</title>
<ellipse fill="none" stroke="black" cx="784.7" cy="-349.69" rx="25.52" ry="25.52"/>
<text xml:space="preserve" text-anchor="middle" x="784.7" y="-345.49" font-family="Times,serif" font-size="14.00">q23</text>
</g>
<!-- q21&#45;&gt;q23 -->
<g id="edge32" class="edge">
<title>q21-&gt;q23</title>
<path fill="none" stroke="black" d="M717.28,-349.69C726.81,-349.69 737.53,-349.69 747.53,-349.69"/>
<polygon fill="black" stroke="black" points="747.31,-353.19 757.31,-349.69 747.31,-346.19 747.31,-353.19"/>
<text xml:space="preserve" text-anchor="middle" x="738.07" y="-353.89" font-family="Times,serif" font-size="14.00">a</text>
</g>
<!-- q24 -->
<g id="node10" class="node">
<title>q24</title>
<ellipse fill="none" stroke="black" cx="882.74" cy="-395.69" rx="25.52" ry="25.52"/>
<ellipse fill="none" stroke="black" cx="882.74" cy="-395.69" rx="29.52" ry="29.52"/>
<text xml:space="preserve" text-anchor="middle" x="882.74" y="-391.49" font-family="Times,serif" font-size="14.00">q24</text>
</g>
<!-- q24&#45;&gt;q20 -->
<g id="edge38" class="edge">
<title>q24-&gt;q20</title>
<path fill="none" stroke="black" d="M911.69,-403.44C956.27,-414.13 1044.85,-428.43 1107.57,-393.69 1135.74,-378.1 1154.45,-346.22 1165.64,-320.45"/>
<polygon fill="black" stroke="black" points="1168.86,-321.82 1169.41,-311.24 1162.38,-319.17 1168.86,-321.82"/>
<text xml:space="preserve" text-anchor="middle" x="1027.02" y="-419.35" font-family="Times,serif" font-size="14.00">b</text>
</g>
<!-- q24&#45;&gt;q11 -->
<g id="edge37" class="edge">
<title>q24-&gt;q11</title>
<path fill="none" stroke="black" d="M901.44,-372.47C917.07,-351.96 939.93,-321.96 956.79,-299.84"/>
<polygon fill="black" stroke="black" points="959.41,-302.18 962.69,-292.1 953.84,-297.93 959.41,-302.18"/>
<text xml:space="preserve" text-anchor="middle" x="933.37" y="-337.39" font-family="Times,serif" font-size="14.00">a</text>
</g>
<!-- q25 -->
<g id="node11" class="node">
<title>q25</title>
<ellipse fill="none" stroke="black" cx="882.74" cy="-318.69" rx="25.52" ry="25.52"/>
<ellipse fill="none" stroke="black" cx="882.74" cy="-318.69" rx="29.52" ry="29.52"/>
<text xml:space="preserve" text-anchor="middle" x="882.74" y="-314.49" font-family="Times,serif" font-size="14.00">q25</text>
</g>
<!-- q25&#45;&gt;q11 -->
<g id="edge39" class="edge">
<title>q25-&gt;q11</title>
<path fill="none" stroke="black" d="M909.27,-305.83C920.69,-300.07 934.3,-293.22 946.44,-287.1"/>
<polygon fill="black" stroke="black" points="947.94,-290.26 955.3,-282.64 944.79,-284.01 947.94,-290.26"/>
<text xml:space="preserve" text-anchor="middle" x="933.37" y="-298.89" font-family="Times,serif" font-size="14.00">a</text>
</g>
<!-- q3 -->
<g id="node14" class="node">
<title>q3</title>
<ellipse fill="none" stroke="black" cx="312.88" cy="-219.69" rx="20.69" ry="20.69"/>
<text xml:space="preserve" text-anchor="middle" x="312.88" y="-215.49" font-family="Times,serif" font-size="14.00">q3</text>
</g>
<!-- q1&#45;&gt;q3 -->
<g id="edge4" class="edge">
<title>q1-&gt;q3</title>
<path fill="none" stroke="black" d="M160.95,-150.28C167.58,-155.83 175.66,-162.03 183.59,-166.69 215.57,-185.52 255.5,-200.87 282.24,-210.12"/>
<polygon fill="black" stroke="black" points="280.81,-213.33 291.4,-213.22 283.05,-206.7 280.81,-213.33"/>
<text xml:space="preserve" text-anchor="middle" x="229.28" y="-202.34" font-family="Times,serif" font-size="14.00">a</text>
</g>
<!-- q4 -->
<g id="node15" class="node">
<title>q4</title>
<ellipse fill="none" stroke="black" cx="229.28" cy="-102.69" rx="20.69" ry="20.69"/>
<text xml:space="preserve" text-anchor="middle" x="229.28" y="-98.49" font-family="Times,serif" font-size="14.00">q4</text>
</g>
<!-- q1&#45;&gt;q4 -->
<g id="edge5" class="edge">
<title>q1-&gt;q4</title>
<path fill="none" stroke="black" d="M164.59,-128.98C174.81,-124.76 187.69,-119.45 199.19,-114.7"/>
<polygon fill="black" stroke="black" points="200.35,-118.01 208.26,-110.96 197.68,-111.53 200.35,-118.01"/>
<text xml:space="preserve" text-anchor="middle" x="187.09" y="-124.91" font-family="Times,serif" font-size="14.00">b</text>
</g>
<!-- q5 -->
<g id="node16" class="node">
<title>q5</title>
<ellipse fill="none" stroke="black" cx="784.7" cy="-135.69" rx="20.69" ry="20.69"/>
<text xml:space="preserve" text-anchor="middle" x="784.7" y="-131.49" font-family="Times,serif" font-size="14.00">q5</text>
</g>
<!-- q2&#45;&gt;q5 -->
<g id="edge6" class="edge">
<title>q2-&gt;q5</title>
<path fill="none" stroke="black" d="M708.18,-130.94C720.99,-131.74 737.97,-132.81 752.58,-133.73"/>
<polygon fill="black" stroke="black" points="751.95,-137.2 762.15,-134.34 752.39,-130.21 751.95,-137.2"/>
<text xml:space="preserve" text-anchor="middle" x="738.07" y="-137.07" font-family="Times,serif" font-size="14.00">a</text>
</g>
<!-- q3&#45;&gt;q6 -->
<g id="edge7" class="edge">
<title>q3-&gt;q6</title>
<path fill="none" stroke="black" d="M333.67,-219.69C343.12,-219.69 354.72,-219.69 365.62,-219.69"/>
<polygon fill="black" stroke="black" points="365.52,-223.19 375.52,-219.69 365.52,-216.19 365.52,-223.19"/>
<text xml:space="preserve" text-anchor="middle" x="355.08" y="-223.89" font-family="Times,serif" font-size="14.00">a</text>
</g>
<!-- q3&#45;&gt;q7 -->
<g id="edge8" class="edge">
<title>q3-&gt;q7</title>
<path fill="none" stroke="black" d="M329.07,-232.58C341.44,-243.08 359.21,-258.15 374,-270.7"/>
<polygon fill="black" stroke="black" points="371.71,-273.35 381.6,-277.15 376.24,-268.01 371.71,-273.35"/>
<text xml:space="preserve" text-anchor="middle" x="355.08" y="-260.89" font-family="Times,serif" font-size="14.00">b</text>
</g>
<!-- q8 -->
<g id="node17" class="node">
<title>q8</title>
<ellipse fill="none" stroke="black" cx="312.88" cy="-100.69" rx="20.69" ry="20.69"/>
<text xml:space="preserve" text-anchor="middle" x="312.88" y="-96.49" font-family="Times,serif" font-size="14.00">q8</text>
</g>
<!-- q4&#45;&gt;q8 -->
<g id="edge9" class="edge">
<title>q4-&gt;q8</title>
<path fill="none" stroke="black" d="M250.45,-102.2C259.54,-101.98 270.49,-101.71 280.61,-101.46"/>
<polygon fill="black" stroke="black" points="280.52,-104.96 290.43,-101.22 280.35,-97.97 280.52,-104.96"/>
<text xml:space="preserve" text-anchor="middle" x="271.08" y="-105.95" font-family="Times,serif" font-size="14.00">a</text>
</g>
<!-- q5&#45;&gt;q9 -->
<g id="edge10" class="edge">
<title>q5-&gt;q9</title>
<path fill="none" stroke="black" d="M801.99,-147.91C816.08,-158.47 836.77,-173.98 853.54,-186.55"/>
<polygon fill="black" stroke="black" points="851.08,-189.08 861.18,-192.27 855.27,-183.48 851.08,-189.08"/>
<text xml:space="preserve" text-anchor="middle" x="831.72" y="-175.89" font-family="Times,serif" font-size="14.00">a</text>
</g>
<!-- q5&#45;&gt;q10 -->
<g id="edge11" class="edge">
<title>q5-&gt;q10</title>
<path fill="none" stroke="black" d="M805.6,-135.69C815.93,-135.69 828.93,-135.69 841.26,-135.69"/>
<polygon fill="black" stroke="black" points="841.24,-139.19 851.24,-135.69 841.24,-132.19 841.24,-139.19"/>
<text xml:space="preserve" text-anchor="middle" x="831.72" y="-139.89" font-family="Times,serif" font-size="14.00">b</text>
</g>
<!-- q14 -->
<g id="node21" class="node">
<title>q14</title>
<ellipse fill="none" stroke="black" cx="402.1" cy="-98.69" rx="25.52" ry="25.52"/>
<text xml:space="preserve" text-anchor="middle" x="402.1" y="-94.49" font-family="Times,serif" font-size="14.00">q14</text>
</g>
<!-- q8&#45;&gt;q14 -->
<g id="edge15" class="edge">
<title>q8-&gt;q14</title>
<path fill="none" stroke="black" d="M333.67,-100.24C342.97,-100.03 354.36,-99.77 365.11,-99.52"/>
<polygon fill="black" stroke="black" points="364.96,-103.02 374.88,-99.29 364.8,-96.02 364.96,-103.02"/>
<text xml:space="preserve" text-anchor="middle" x="355.08" y="-104.01" font-family="Times,serif" font-size="14.00">a</text>
</g>
<!-- q11&#45;&gt;q16 -->
<g id="edge19" class="edge">
<title>q11-&gt;q16</title>
<path fill="none" stroke="black" d="M1000.47,-286.52C1009.68,-294.09 1020.76,-303.35 1030.52,-311.89 1036.18,-316.85 1042.15,-322.21 1047.85,-327.42"/>
<polygon fill="black" stroke="black" points="1045.1,-329.65 1054.83,-333.84 1049.84,-324.5 1045.1,-329.65"/>
<text xml:space="preserve" text-anchor="middle" x="1027.02" y="-316.09" font-family="Times,serif" font-size="14.00">b</text>
</g>
<!-- q15 -->
<g id="node22" class="node">
<title>q15</title>
<ellipse fill="none" stroke="black" cx="1078.05" cy="-281.69" rx="25.52" ry="25.52"/>
<text xml:space="preserve" text-anchor="middle" x="1078.05" y="-277.49" font-family="Times,serif" font-size="14.00">q15</text>
</g>
<!-- q11&#45;&gt;q15 -->
<g id="edge18" class="edge">
<title>q11-&gt;q15</title>
<path fill="none" stroke="black" d="M1006,-270.41C1013.87,-270.56 1022.58,-270.97 1030.52,-271.89 1034.21,-272.32 1038.04,-272.9 1041.85,-273.57"/>
<polygon fill="black" stroke="black" points="1041.07,-276.98 1051.55,-275.47 1042.41,-270.11 1041.07,-276.98"/>
<text xml:space="preserve" text-anchor="middle" x="1027.02" y="-276.09" font-family="Times,serif" font-size="14.00">a</text>
</g>
<!-- q17 -->
<g id="node23" class="node">
<title>q17</title>
<ellipse fill="none" stroke="black" cx="589.4" cy="-156.69" rx="25.52" ry="25.52"/>
<text xml:space="preserve" text-anchor="middle" x="589.4" y="-152.49" font-family="Times,serif" font-size="14.00">q17</text>
</g>
<!-- q12&#45;&gt;q17 -->
<g id="edge20" class="edge">
<title>q12-&gt;q17</title>
<path fill="none" stroke="black" d="M518.77,-194.84C530.05,-188.66 544.07,-180.98 556.57,-174.13"/>
<polygon fill="black" stroke="black" points="558.2,-177.23 565.28,-169.36 554.83,-171.09 558.2,-177.23"/>
<text xml:space="preserve" text-anchor="middle" x="542.77" y="-187.39" font-family="Times,serif" font-size="14.00">a</text>
</g>
<!-- q13&#45;&gt;q16 -->
<g id="edge22" class="edge">
<title>q13-&gt;q16</title>
<path fill="none" stroke="black" d="M501.76,-339.87C510.73,-379.92 534.56,-453.69 588.4,-453.69 588.4,-453.69 588.4,-453.69 934.37,-453.69 959.7,-453.69 1013.22,-411.06 1047.03,-381.75"/>
<polygon fill="black" stroke="black" points="1049.24,-384.47 1054.45,-375.25 1044.62,-379.21 1049.24,-384.47"/>
<text xml:space="preserve" text-anchor="middle" x="784.7" y="-457.89" font-family="Times,serif" font-size="14.00">b</text>
</g>
<!-- q18 -->
<g id="node24" class="node">
<title>q18</title>
<ellipse fill="none" stroke="black" cx="589.4" cy="-349.69" rx="25.52" ry="25.52"/>
<text xml:space="preserve" text-anchor="middle" x="589.4" y="-345.49" font-family="Times,serif" font-size="14.00">q18</text>
</g>
<!-- q13&#45;&gt;q18 -->
<g id="edge21" class="edge">
<title>q13-&gt;q18</title>
<path fill="none" stroke="black" d="M520.17,-323.53C530.57,-327.52 543.07,-332.31 554.52,-336.7"/>
<polygon fill="black" stroke="black" points="553.06,-339.89 563.65,-340.2 555.56,-333.35 553.06,-339.89"/>
<text xml:space="preserve" text-anchor="middle" x="542.77" y="-337.44" font-family="Times,serif" font-size="14.00">a</text>
</g>
<!-- q19 -->
<g id="node25" class="node">
<title>q19</title>
<ellipse fill="none" stroke="black" cx="496.14" cy="-98.69" rx="25.52" ry="25.52"/>
<text xml:space="preserve" text-anchor="middle" x="496.14" y="-94.49" font-family="Times,serif" font-size="14.00">q19</text>
</g>
<!-- q14&#45;&gt;q19 -->
<g id="edge23" class="edge">
<title>q14-&gt;q19</title>
<path fill="none" stroke="black" d="M427.76,-98.69C437.36,-98.69 448.55,-98.69 459.01,-98.69"/>
<polygon fill="black" stroke="black" points="458.89,-102.19 468.89,-98.69 458.89,-95.19 458.89,-102.19"/>
<text xml:space="preserve" text-anchor="middle" x="449.12" y="-102.89" font-family="Times,serif" font-size="14.00">a</text>
</g>
<!-- q15&#45;&gt;q20 -->
<g id="edge24" class="edge">
<title>q15-&gt;q20</title>
<path fill="none" stroke="black" d="M1104.03,-281.69C1114.54,-281.69 1127.03,-281.69 1138.77,-281.69"/>
<polygon fill="black" stroke="black" points="1138.66,-285.19 1148.66,-281.69 1138.66,-278.19 1138.66,-285.19"/>
<text xml:space="preserve" text-anchor="middle" x="1129.07" y="-285.89" font-family="Times,serif" font-size="14.00">b</text>
</g>
<!-- q17&#45;&gt;q1 -->
<g id="edge26" class="edge">
<title>q17-&gt;q1</title>
<path fill="none" stroke="black" d="M563.62,-155.02C545.28,-153.92 519.66,-152.69 497.14,-152.69 228.28,-152.69 228.28,-152.69 228.28,-152.69 210.75,-152.69 191.5,-149.16 176.01,-145.41"/>
<polygon fill="black" stroke="black" points="177.02,-142.06 166.47,-142.94 175.27,-148.83 177.02,-142.06"/>
<text xml:space="preserve" text-anchor="middle" x="355.08" y="-156.89" font-family="Times,serif" font-size="14.00">a</text>
</g>
<!-- q17&#45;&gt;q2 -->
<g id="edge27" class="edge">
<title>q17-&gt;q2</title>
<path fill="none" stroke="black" d="M614.14,-150.02C626.9,-146.43 642.76,-141.97 656.37,-138.15"/>
<polygon fill="black" stroke="black" points="657.03,-141.6 665.71,-135.52 655.13,-134.86 657.03,-141.6"/>
<text xml:space="preserve" text-anchor="middle" x="636.42" y="-148.2" font-family="Times,serif" font-size="14.00">b</text>
</g>
<!-- q18&#45;&gt;q21 -->
<g id="edge29" class="edge">
<title>q18-&gt;q21</title>
<path fill="none" stroke="black" d="M615.38,-349.69C624.75,-349.69 635.65,-349.69 646.06,-349.69"/>
<polygon fill="black" stroke="black" points="645.99,-353.19 655.99,-349.69 645.99,-346.19 645.99,-353.19"/>
<text xml:space="preserve" text-anchor="middle" x="636.42" y="-353.89" font-family="Times,serif" font-size="14.00">b</text>
</g>
<!-- q18&#45;&gt;q1 -->
<g id="edge28" class="edge">
<title>q18-&gt;q1</title>
<path fill="none" stroke="black" d="M564.66,-357.42C546.41,-362.68 520.44,-368.69 497.14,-368.69 228.28,-368.69 228.28,-368.69 228.28,-368.69 186.32,-368.69 160.26,-232.22 150.39,-168.62"/>
<polygon fill="black" stroke="black" points="153.86,-168.15 148.91,-158.78 146.94,-169.19 153.86,-168.15"/>
<text xml:space="preserve" text-anchor="middle" x="355.08" y="-372.89" font-family="Times,serif" font-size="14.00">a</text>
</g>
<!-- q22 -->
<g id="node26" class="node">
<title>q22</title>
<ellipse fill="none" stroke="black" cx="589.4" cy="-87.69" rx="25.52" ry="25.52"/>
<text xml:space="preserve" text-anchor="middle" x="589.4" y="-83.49" font-family="Times,serif" font-size="14.00">q22</text>
</g>
<!-- q19&#45;&gt;q22 -->
<g id="edge30" class="edge">
<title>q19-&gt;q22</title>
<path fill="none" stroke="black" d="M521.6,-95.75C531.03,-94.61 542.02,-93.28 552.33,-92.04"/>
<polygon fill="black" stroke="black" points="552.55,-95.54 562.06,-90.87 551.71,-88.59 552.55,-95.54"/>
<text xml:space="preserve" text-anchor="middle" x="542.77" y="-97.72" font-family="Times,serif" font-size="14.00">a</text>
</g>
<!-- q22&#45;&gt;q1 -->
<g id="edge33" class="edge">
<title>q22-&gt;q1</title>
<path fill="none" stroke="black" d="M568.63,-72.17C550.94,-59.85 523.76,-44.69 497.14,-44.69 228.28,-44.69 228.28,-44.69 228.28,-44.69 194.21,-44.69 170.69,-80.14 157.76,-107.03"/>
<polygon fill="black" stroke="black" points="154.72,-105.25 153.79,-115.8 161.1,-108.14 154.72,-105.25"/>
<text xml:space="preserve" text-anchor="middle" x="355.08" y="-48.89" font-family="Times,serif" font-size="14.00">a</text>
</g>
<!-- q22&#45;&gt;q2 -->
<g id="edge34" class="edge">
<title>q22-&gt;q2</title>
<path fill="none" stroke="black" d="M613.16,-97.65C626.51,-103.48 643.5,-110.91 657.76,-117.15"/>
<polygon fill="black" stroke="black" points="656.07,-120.23 666.64,-121.03 658.88,-113.82 656.07,-120.23"/>
<text xml:space="preserve" text-anchor="middle" x="636.42" y="-112.89" font-family="Times,serif" font-size="14.00">b</text>
</g>
<!-- q23&#45;&gt;q24 -->
<g id="edge35" class="edge">
<title>q23-&gt;q24</title>
<path fill="none" stroke="black" d="M807.98,-360.36C819.06,-365.67 832.74,-372.22 845.3,-378.24"/>
<polygon fill="black" stroke="black" points="843.6,-381.31 854.13,-382.47 846.63,-374.99 843.6,-381.31"/>
<text xml:space="preserve" text-anchor="middle" x="831.72" y="-376.89" font-family="Times,serif" font-size="14.00">a</text>
</g>
<!-- q23&#45;&gt;q25 -->
<g id="edge36" class="edge">
<title>q23-&gt;q25</title>
<path fill="none" stroke="black" d="M809.44,-342.03C819.71,-338.72 832,-334.75 843.5,-331.04"/>
<polygon fill="black" stroke="black" points="844.31,-334.45 852.75,-328.05 842.16,-327.79 844.31,-334.45"/>
<text xml:space="preserve" text-anchor="middle" x="831.72" y="-339.32" font-family="Times,serif" font-size="14.00">b</text>
</g>
</g>
</svg>