<svg xmlns="http://www.w3.org/2000/svg" xmlns:xlink="http://www.w3.org/1999/xlink" width="953pt" height="814pt" viewBox="0.00 0.00 953.00 814.00">
<g id="graph0" class="graph" transform="scale(1 1) rotate(0) translate(4 810)">
<title>LR_Automaton</title>
<polygon fill="white" stroke="none" points="-4,4 -4,-810 948.73,-810 948.73,4 -4,4"/>
<!-- 1 -->
<g id="node1" class="node">
<title>1</title>
<ellipse fill="none" stroke="black" cx="59.72" cy="-293" rx="18" ry="18"/>
<ellipse fill="none" stroke="black" cx="59.72" cy="-293" rx="22" ry="22"/>
<text xml:space="preserve" text-anchor="middle" x="59.72" y="-288.8" font-family="Times,serif" font-size="14.00">1</text>
</g>
<!-- 3 -->
<g id="node4" class="node">
<title>3</title>
<ellipse fill="none" stroke="black" cx="140.16" cy="-293" rx="18" ry="18"/>
<text xml:space="preserve" text-anchor="middle" x="140.16" y="-288.8" font-family="Times,serif" font-size="14.00">3</text>
</g>
<!-- 1&#45;&gt;3 -->
<g id="edge4" class="edge">
<title>1-&gt;3</title>
<path fill="none" stroke="black" d="M82.15,-293C90.89,-293 101.13,-293 110.49,-293"/>
<polygon fill="black" stroke="black" points="110.2,-296.5 120.2,-293 110.2,-289.5 110.2,-296.5"/>
<text xml:space="preserve" text-anchor="middle" x="101.94" y="-296" font-family="Times,serif" font-size="10.00">a</text>
</g>
<!-- 4 -->
<g id="node5" class="node">
<title>4</title>
<ellipse fill="none" stroke="black" cx="390.51" cy="-564" rx="18" ry="18"/>
<text xml:space="preserve" text-anchor="middle" x="390.51" y="-559.8" font-family="Times,serif" font-size="14.00">4</text>
</g>
<!-- 1&#45;&gt;4 -->
<g id="edge5" class="edge">
<title>1-&gt;4</title>
<path fill="none" stroke="black" d="M62.46,-315.09C69.57,-401.92 98.08,-715 139.16,-715 139.16,-715 139.16,-715 260.82,-715 324.69,-715 363.55,-635.78 380.13,-592.1"/>
<polygon fill="black" stroke="black" points="383.4,-593.34 383.52,-582.74 376.82,-590.95 383.4,-593.34"/>
<text xml:space="preserve" text-anchor="middle" x="217.16" y="-718" font-family="Times,serif" font-size="10.00">b</text>
</g>
<!-- start_arrow -->
<g id="node2" class="node">
<title>start_arrow</title>
</g>
<!-- 0 -->
<g id="node3" class="node">
<title>0</title>
<ellipse fill="none" stroke="black" cx="59.72" cy="-561" rx="18" ry="18"/>
<text xml:space="preserve" text-anchor="middle" x="59.72" y="-556.8" font-family="Times,serif" font-size="14.00">0</text>
</g>
<!-- start_arrow&#45;&gt;0 -->
<g id="edge1" class="edge">
<title>start_arrow-&gt;0</title>
<path fill="none" stroke="black" d="M0.89,-561C2.55,-561 16.38,-561 30.09,-561"/>
<polygon fill="black" stroke="black" points="29.8,-564.5 39.8,-561 29.8,-557.5 29.8,-564.5"/>
</g>
<!-- 0&#45;&gt;3 -->
<g id="edge2" class="edge">
<title>0-&gt;3</title>
<path fill="none" stroke="black" d="M65.75,-543.83C78.94,-498.74 114.67,-376.67 130.92,-321.16"/>
<polygon fill="black" stroke="black" points="134.2,-322.41 133.65,-311.83 127.48,-320.44 134.2,-322.41"/>
<text xml:space="preserve" text-anchor="middle" x="101.94" y="-430" font-family="Times,serif" font-size="10.00">a</text>
</g>
<!-- 0&#45;&gt;4 -->
<g id="edge3" class="edge">
<title>0-&gt;4</title>
<path fill="none" stroke="black" d="M62.19,-579.19C65.8,-618.67 76.52,-710.19 99.72,-729 175.93,-790.8 231.67,-770.71 320.49,-729 370.65,-705.44 384.42,-634.55 388.16,-593.76"/>
<polygon fill="black" stroke="black" points="391.64,-594.14 388.9,-583.9 384.66,-593.61 391.64,-594.14"/>
<text xml:space="preserve" text-anchor="middle" x="217.16" y="-771.12" font-family="Times,serif" font-size="10.00">b</text>
</g>
<!-- 3&#45;&gt;3 -->
<g id="edge8" class="edge">
<title>3-&gt;3</title>
<path fill="none" stroke="black" d="M133.39,-310.04C132,-319.86 134.26,-329 140.16,-329 143.57,-329 145.76,-325.94 146.74,-321.47"/>
<polygon fill="black" stroke="black" points="150.23,-321.61 146.91,-311.55 143.24,-321.49 150.23,-321.61"/>
<text xml:space="preserve" text-anchor="middle" x="140.16" y="-332" font-family="Times,serif" font-size="10.00">a</text>
</g>
<!-- 9 -->
<g id="node7" class="node">
<title>9</title>
<ellipse fill="none" stroke="black" cx="217.16" cy="-418" rx="18" ry="18"/>
<text xml:space="preserve" text-anchor="middle" x="217.16" y="-413.8" font-family="Times,serif" font-size="14.00">9</text>
</g>
<!-- 3&#45;&gt;9 -->
<g id="edge9" class="edge">
<title>3-&gt;9</title>
<path fill="none" stroke="black" d="M150.35,-308.33C163.08,-329.53 186.18,-368.04 201.35,-393.32"/>
<polygon fill="black" stroke="black" points="198.2,-394.87 206.34,-401.64 204.2,-391.26 198.2,-394.87"/>
<text xml:space="preserve" text-anchor="middle" x="178.66" y="-362.25" font-family="Times,serif" font-size="10.00">b</text>
</g>
<!-- 4&#45;&gt;4 -->
<g id="edge11" class="edge">
<title>4-&gt;4</title>
<path fill="none" stroke="black" d="M382.54,-580.66C380.77,-590.62 383.42,-600 390.51,-600 394.72,-600 397.37,-596.69 398.45,-591.92"/>
<polygon fill="black" stroke="black" points="401.95,-592.19 398.48,-582.18 394.95,-592.17 401.95,-592.19"/>
<text xml:space="preserve" text-anchor="middle" x="390.51" y="-603" font-family="Times,serif" font-size="10.00">b</text>
</g>
<!-- 11 -->
<g id="node8" class="node">
<title>11</title>
<ellipse fill="none" stroke="black" cx="481.23" cy="-429" rx="20.69" ry="20.69"/>
<text xml:space="preserve" text-anchor="middle" x="481.23" y="-424.8" font-family="Times,serif" font-size="14.00">11</text>
</g>
<!-- 4&#45;&gt;11 -->
<g id="edge10" class="edge">
<title>4-&gt;11</title>
<path fill="none" stroke="black" d="M398.32,-547.33C405.13,-531.48 416.4,-507.26 429.21,-488 437.76,-475.14 448.82,-462.02 458.45,-451.44"/>
<polygon fill="black" stroke="black" points="460.84,-454.01 465.09,-444.31 455.72,-449.24 460.84,-454.01"/>
<text xml:space="preserve" text-anchor="middle" x="435.87" y="-491" font-family="Times,serif" font-size="10.00">a</text>
</g>
<!-- 2 -->
<g id="node6" class="node">
<title>2</title>
<ellipse fill="none" stroke="black" cx="926.73" cy="-519" rx="18" ry="18"/>
<text xml:space="preserve" text-anchor="middle" x="926.73" y="-514.8" font-family="Times,serif" font-size="14.00">2</text>
</g>
<!-- 2&#45;&gt;3 -->
<g id="edge6" class="edge">
<title>2-&gt;3</title>
<path fill="none" stroke="black" d="M924.05,-537.04C917.83,-598.22 893.74,-794 839.71,-794 434.87,-794 434.87,-794 434.87,-794 267.05,-794 263,-654.21 199.16,-499 174.06,-437.99 155.88,-362.52 147.09,-321.99"/>
<polygon fill="black" stroke="black" points="150.53,-321.36 145.03,-312.3 143.69,-322.81 150.53,-321.36"/>
<text xml:space="preserve" text-anchor="middle" x="526.59" y="-797" font-family="Times,serif" font-size="10.00">a</text>
</g>
<!-- 2&#45;&gt;4 -->
<g id="edge7" class="edge">
<title>2-&gt;4</title>
<path fill="none" stroke="black" d="M924.33,-537.24C920.02,-579 903.11,-678 839.71,-678 480.23,-678 480.23,-678 480.23,-678 436.74,-678 411.46,-625.7 399.68,-591.95"/>
<polygon fill="black" stroke="black" points="403.11,-591.16 396.66,-582.75 396.45,-593.35 403.11,-591.16"/>
<text xml:space="preserve" text-anchor="middle" x="659.97" y="-681" font-family="Times,serif" font-size="10.00">b</text>
</g>
<!-- 9&#45;&gt;1 -->
<g id="edge32" class="edge">
<title>9-&gt;1</title>
<path fill="none" stroke="black" d="M198.96,-417.98C174.11,-417.05 128.06,-411.8 99.72,-387 81.85,-371.37 72,-346.24 66.67,-325.9"/>
<polygon fill="black" stroke="black" points="70.12,-325.3 64.43,-316.36 63.3,-326.9 70.12,-325.3"/>
<text xml:space="preserve" text-anchor="middle" x="140.16" y="-416.15" font-family="Times,serif" font-size="10.00">eps</text>
</g>
<!-- 9&#45;&gt;4 -->
<g id="edge21" class="edge">
<title>9-&gt;4</title>
<path fill="none" stroke="black" d="M219.93,-436.03C223,-457.8 231.26,-494.2 253.16,-516 282.52,-545.23 330.72,-556.72 361.25,-561.2"/>
<polygon fill="black" stroke="black" points="360.52,-564.63 370.88,-562.44 361.41,-557.69 360.52,-564.63"/>
<text xml:space="preserve" text-anchor="middle" x="302.49" y="-554.88" font-family="Times,serif" font-size="10.00">b</text>
</g>
<!-- 9&#45;&gt;11 -->
<g id="edge20" class="edge">
<title>9-&gt;11</title>
<path fill="none" stroke="black" d="M233.4,-426.44C246.49,-433.14 266.1,-441.87 284.49,-445 342.36,-454.86 410.94,-444.22 449.63,-436.19"/>
<polygon fill="black" stroke="black" points="450.13,-439.67 459.16,-434.13 448.65,-432.83 450.13,-439.67"/>
<text xml:space="preserve" text-anchor="middle" x="345.15" y="-451.95" font-family="Times,serif" font-size="10.00">a</text>
</g>
<!-- 5 -->
<g id="node9" class="node">
<title>5</title>
<ellipse fill="none" stroke="black" cx="659.97" cy="-211" rx="18" ry="18"/>
<text xml:space="preserve" text-anchor="middle" x="659.97" y="-206.8" font-family="Times,serif" font-size="14.00">5</text>
</g>
<!-- 9&#45;&gt;5 -->
<g id="edge35" class="edge">
<title>9-&gt;5</title>
<path fill="none" stroke="black" d="M220.24,-399.8C225.04,-367.36 240.09,-300.1 284.49,-270 385.58,-201.46 429.38,-212.03 551.25,-204 583.5,-201.88 591.81,-200.82 623.97,-204 626.19,-204.22 628.48,-204.52 630.77,-204.86"/>
<polygon fill="black" stroke="black" points="630.03,-208.29 640.49,-206.63 631.28,-201.4 630.03,-208.29"/>
<text xml:space="preserve" text-anchor="middle" x="435.87" y="-214.48" font-family="Times,serif" font-size="10.00">eps</text>
</g>
<!-- 7 -->
<g id="node11" class="node">
<title>7</title>
<ellipse fill="none" stroke="black" cx="659.97" cy="-586" rx="18" ry="18"/>
<text xml:space="preserve" text-anchor="middle" x="659.97" y="-581.8" font-family="Times,serif" font-size="14.00">7</text>
</g>
<!-- 9&#45;&gt;7 -->
<g id="edge38" class="edge">
<title>9-&gt;7</title>
<path fill="none" stroke="black" d="M220.69,-435.87C224.7,-459.97 234.09,-503.58 253.16,-536 284.58,-589.43 342.97,-657.73 429.21,-691 511.49,-722.74 559.3,-712.97 623.97,-653 635.47,-642.33 643.86,-627.02 649.54,-613.73"/>
<polygon fill="black" stroke="black" points="652.73,-615.18 653.13,-604.59 646.22,-612.62 652.73,-615.18"/>
<text xml:space="preserve" text-anchor="middle" x="435.87" y="-698.65" font-family="Times,serif" font-size="10.00">eps</text>
</g>
<!-- 8 -->
<g id="node12" class="node">
<title>8</title>
<ellipse fill="none" stroke="black" cx="302.49" cy="-418" rx="18" ry="18"/>
<text xml:space="preserve" text-anchor="middle" x="302.49" y="-413.8" font-family="Times,serif" font-size="14.00">8</text>
</g>
<!-- 9&#45;&gt;8 -->
<g id="edge41" class="edge">
<title>9-&gt;8</title>
<path fill="none" stroke="black" d="M235.42,-418C246.26,-418 260.5,-418 272.98,-418"/>
<polygon fill="black" stroke="black" points="272.73,-421.5 282.73,-418 272.73,-414.5 272.73,-421.5"/>
<text xml:space="preserve" text-anchor="middle" x="259.82" y="-421" font-family="Times,serif" font-size="10.00">eps</text>
</g>
<!-- 11&#45;&gt;3 -->
<g id="edge24" class="edge">
<title>11-&gt;3</title>
<path fill="none" stroke="black" d="M475.5,-409.04C467.59,-380.57 448.69,-329.18 411.21,-306 334.54,-258.6 220.93,-275 168.95,-286.15"/>
<polygon fill="black" stroke="black" points="168.43,-282.68 159.45,-288.3 169.97,-289.51 168.43,-282.68"/>
<text xml:space="preserve" text-anchor="middle" x="302.49" y="-279.37" font-family="Times,serif" font-size="10.00">a</text>
</g>
<!-- 11&#45;&gt;2 -->
<g id="edge45" class="edge">
<title>11-&gt;2</title>
<path fill="none" stroke="black" d="M496.95,-442.56C503.52,-447.89 511.65,-453.55 519.92,-457 652.74,-512.41 828.52,-518.98 896.85,-519.29"/>
<polygon fill="black" stroke="black" points="896.81,-522.79 906.81,-519.28 896.81,-515.79 896.81,-522.79"/>
<text xml:space="preserve" text-anchor="middle" x="702.63" y="-508.45" font-family="Times,serif" font-size="10.00">eps</text>
</g>
<!-- 11&#45;&gt;9 -->
<g id="edge25" class="edge">
<title>11-&gt;9</title>
<path fill="none" stroke="black" d="M462.61,-438.47C448.97,-445.35 429.41,-454.25 411.21,-459 356.71,-473.23 339.94,-470.91 284.49,-461 270.23,-458.45 265.69,-459.27 253.16,-452 247.48,-448.71 242.03,-444.29 237.19,-439.74"/>
<polygon fill="black" stroke="black" points="239.78,-437.38 230.29,-432.68 234.78,-442.27 239.78,-437.38"/>
<text xml:space="preserve" text-anchor="middle" x="345.15" y="-472.05" font-family="Times,serif" font-size="10.00">b</text>
</g>
<!-- 6 -->
<g id="node10" class="node">
<title>6</title>
<ellipse fill="none" stroke="black" cx="926.73" cy="-184" rx="18" ry="18"/>
<text xml:space="preserve" text-anchor="middle" x="926.73" y="-179.8" font-family="Times,serif" font-size="14.00">6</text>
</g>
<!-- 11&#45;&gt;6 -->
<g id="edge48" class="edge">
<title>11-&gt;6</title>
<path fill="none" stroke="black" d="M502.17,-430.83C507.89,-431.29 514.15,-431.73 519.92,-432 581.66,-434.9 597.16,-434 658.97,-434 658.97,-434 658.97,-434 839.71,-434 885.95,-434 912.68,-279.17 921.98,-213.21"/>
<polygon fill="black" stroke="black" points="925.42,-213.86 923.31,-203.48 918.49,-212.91 925.42,-213.86"/>
<text xml:space="preserve" text-anchor="middle" x="702.63" y="-437" font-family="Times,serif" font-size="10.00">eps</text>
</g>
<!-- 10 -->
<g id="node14" class="node">
<title>10</title>
<ellipse fill="none" stroke="black" cx="747.99" cy="-260" rx="20.69" ry="20.69"/>
<text xml:space="preserve" text-anchor="middle" x="747.99" y="-255.8" font-family="Times,serif" font-size="14.00">10</text>
</g>
<!-- 11&#45;&gt;10 -->
<g id="edge51" class="edge">
<title>11-&gt;10</title>
<path fill="none" stroke="black" d="M486.58,-408.64C491.53,-390.49 501.45,-364.62 519.92,-350 587.45,-296.56 636.53,-355.05 709.3,-309 717.9,-303.56 725.31,-295.42 731.22,-287.33"/>
<polygon fill="black" stroke="black" points="733.95,-289.53 736.61,-279.28 728.14,-285.64 733.95,-289.53"/>
<text xml:space="preserve" text-anchor="middle" x="617.3" y="-330.53" font-family="Times,serif" font-size="10.00">eps</text>
</g>
<!-- 12 -->
<g id="node16" class="node">
<title>12</title>
<ellipse fill="none" stroke="black" cx="571.95" cy="-276" rx="20.69" ry="20.69"/>
<text xml:space="preserve" text-anchor="middle" x="571.95" y="-271.8" font-family="Times,serif" font-size="14.00">12</text>
</g>
<!-- 11&#45;&gt;12 -->
<g id="edge54" class="edge">
<title>11-&gt;12</title>
<path fill="none" stroke="black" d="M484.57,-408.15C488.31,-382.76 497.65,-339.62 519.92,-310 525.93,-302.02 534.39,-295.32 542.69,-290.03"/>
<polygon fill="black" stroke="black" points="544.37,-293.11 551.27,-285.06 540.86,-287.05 544.37,-293.11"/>
<text xml:space="preserve" text-anchor="middle" x="526.59" y="-313" font-family="Times,serif" font-size="10.00">eps</text>
</g>
<!-- 5&#45;&gt;3 -->
<g id="edge12" class="edge">
<title>5-&gt;3</title>
<path fill="none" stroke="black" d="M655.55,-193.07C647.72,-158.07 625.01,-84 572.95,-84 434.87,-84 434.87,-84 434.87,-84 318.52,-84 260.49,-43.85 176.16,-124 156.41,-142.77 147.05,-220.19 143.29,-263.44"/>
<polygon fill="black" stroke="black" points="139.83,-262.89 142.5,-273.14 146.8,-263.46 139.83,-262.89"/>
<text xml:space="preserve" text-anchor="middle" x="390.51" y="-86.42" font-family="Times,serif" font-size="10.00">a</text>
</g>
<!-- 5&#45;&gt;4 -->
<g id="edge13" class="edge">
<title>5-&gt;4</title>
<path fill="none" stroke="black" d="M652.03,-227.52C628.08,-283.94 547.84,-467.91 501.92,-512 489.24,-524.18 446.59,-542.42 418.17,-553.75"/>
<polygon fill="black" stroke="black" points="417.14,-550.39 409.11,-557.31 419.7,-556.91 417.14,-550.39"/>
<text xml:space="preserve" text-anchor="middle" x="526.59" y="-491.84" font-family="Times,serif" font-size="10.00">b</text>
</g>
<!-- 5&#45;&gt;2 -->
<g id="edge44" class="edge">
<title>5-&gt;2</title>
<path fill="none" stroke="black" d="M678.05,-210.19C705.12,-209.56 759.02,-210.97 800.02,-229 831.6,-242.89 840.78,-249.96 859.4,-279 902.56,-346.28 917.98,-441.58 923.21,-489.32"/>
<polygon fill="black" stroke="black" points="919.72,-489.55 924.21,-499.15 926.68,-488.85 919.72,-489.55"/>
<text xml:space="preserve" text-anchor="middle" x="793.35" y="-232" font-family="Times,serif" font-size="10.00">eps</text>
</g>
<!-- 5&#45;&gt;6 -->
<g id="edge47" class="edge">
<title>5-&gt;6</title>
<path fill="none" stroke="black" d="M676.8,-204.03C682.74,-201.59 689.59,-198.96 695.97,-197 740.97,-183.14 752.95,-175.69 800.02,-177 833.44,-177.93 871.81,-180.25 897.28,-181.96"/>
<polygon fill="black" stroke="black" points="896.94,-185.45 907.16,-182.64 897.42,-178.46 896.94,-185.45"/>
<text xml:space="preserve" text-anchor="middle" x="793.35" y="-180" font-family="Times,serif" font-size="10.00">eps</text>
</g>
<!-- 5&#45;&gt;10 -->
<g id="edge50" class="edge">
<title>5-&gt;10</title>
<path fill="none" stroke="black" d="M675.95,-219.54C687.96,-226.38 705.13,-236.16 719.58,-244.39"/>
<polygon fill="black" stroke="black" points="717.78,-247.39 728.2,-249.29 721.24,-241.3 717.78,-247.39"/>
<text xml:space="preserve" text-anchor="middle" x="702.63" y="-241.43" font-family="Times,serif" font-size="10.00">eps</text>
</g>
<!-- 5&#45;&gt;12 -->
<g id="edge53" class="edge">
<title>5-&gt;12</title>
<path fill="none" stroke="black" d="M641.69,-213.21C631.9,-215.11 619.82,-218.61 610.64,-225 601.84,-231.12 594.28,-239.97 588.3,-248.57"/>
<polygon fill="black" stroke="black" points="585.5,-246.46 583.04,-256.76 591.39,-250.24 585.5,-246.46"/>
<text xml:space="preserve" text-anchor="middle" x="617.3" y="-228" font-family="Times,serif" font-size="10.00">eps</text>
</g>
<!-- 6&#45;&gt;3 -->
<g id="edge14" class="edge">
<title>6-&gt;3</title>
<path fill="none" stroke="black" d="M925.48,-165.68C923.79,-119.14 912.35,0 839.71,0 344.15,0 344.15,0 344.15,0 253.17,0 209.59,-32.38 176.16,-117 156.62,-166.46 147.58,-228.22 143.72,-263.88"/>
<polygon fill="black" stroke="black" points="140.28,-263.11 142.75,-273.41 147.24,-263.81 140.28,-263.11"/>
<text xml:space="preserve" text-anchor="middle" x="526.59" y="-3" font-family="Times,serif" font-size="10.00">a</text>
</g>
<!-- 6&#45;&gt;4 -->
<g id="edge15" class="edge">
<title>6-&gt;4</title>
<path fill="none" stroke="black" d="M924.89,-202.25C922.71,-239.39 915.2,-326.01 890.73,-394 863.9,-468.57 841.63,-493.03 768.69,-524 736.8,-537.54 502.5,-555.85 420.09,-561.94"/>
<polygon fill="black" stroke="black" points="420.08,-558.43 410.37,-562.65 420.6,-565.41 420.08,-558.43"/>
<text xml:space="preserve" text-anchor="middle" x="659.97" y="-545.89" font-family="Times,serif" font-size="10.00">b</text>
</g>
<!-- 7&#45;&gt;3 -->
<g id="edge16" class="edge">
<title>7-&gt;3</title>
<path fill="none" stroke="black" d="M654.09,-603.35C641.49,-646.27 606.53,-754 572.95,-754 389.51,-754 389.51,-754 389.51,-754 388.91,-754 284.82,-615.51 284.49,-615 269.01,-591.51 266.11,-584.97 253.16,-560 227.16,-509.87 221.24,-496.97 199.16,-445 180.94,-402.13 162.12,-351.41 151.04,-320.74"/>
<polygon fill="black" stroke="black" points="154.38,-319.68 147.7,-311.46 147.79,-322.05 154.38,-319.68"/>
<text xml:space="preserve" text-anchor="middle" x="390.51" y="-757" font-family="Times,serif" font-size="10.00">a</text>
</g>
<!-- 7&#45;&gt;4 -->
<g id="edge17" class="edge">
<title>7-&gt;4</title>
<path fill="none" stroke="black" d="M641.75,-587.26C603.22,-589.68 507.32,-593.45 429.21,-578 425.51,-577.27 421.69,-576.22 417.97,-575.03"/>
<polygon fill="black" stroke="black" points="419.34,-571.8 408.75,-571.68 416.95,-578.38 419.34,-571.8"/>
<text xml:space="preserve" text-anchor="middle" x="526.59" y="-591.86" font-family="Times,serif" font-size="10.00">b</text>
</g>
<!-- 8&#45;&gt;4 -->
<g id="edge19" class="edge">
<title>8-&gt;4</title>
<path fill="none" stroke="black" d="M307.68,-435.64C312.87,-455.32 322.98,-487.6 338.49,-512 346.28,-524.26 357.35,-535.98 367.19,-545.19"/>
<polygon fill="black" stroke="black" points="364.84,-547.78 374.62,-551.86 369.52,-542.58 364.84,-547.78"/>
<text xml:space="preserve" text-anchor="middle" x="345.15" y="-532.42" font-family="Times,serif" font-size="10.00">b</text>
</g>
<!-- 13 -->
<g id="node13" class="node">
<title>13</title>
<ellipse fill="none" stroke="black" cx="390.51" cy="-336" rx="20.69" ry="20.69"/>
<text xml:space="preserve" text-anchor="middle" x="390.51" y="-331.8" font-family="Times,serif" font-size="14.00">13</text>
</g>
<!-- 8&#45;&gt;13 -->
<g id="edge18" class="edge">
<title>8-&gt;13</title>
<path fill="none" stroke="black" d="M312.68,-402.65C319.12,-392.65 328.36,-379.71 338.49,-370 345.59,-363.19 354.21,-356.87 362.34,-351.57"/>
<polygon fill="black" stroke="black" points="363.93,-354.7 370.57,-346.44 360.23,-348.75 363.93,-354.7"/>
<text xml:space="preserve" text-anchor="middle" x="345.15" y="-373" font-family="Times,serif" font-size="10.00">a</text>
</g>
<!-- 13&#45;&gt;1 -->
<g id="edge34" class="edge">
<title>13-&gt;1</title>
<path fill="none" stroke="black" d="M378.44,-319.09C359.44,-291.99 317.71,-240.21 266.49,-224 201.72,-203.5 126.11,-246.1 87.06,-273.09"/>
<polygon fill="black" stroke="black" points="85.08,-270.21 78.96,-278.86 89.14,-275.91 85.08,-270.21"/>
<text xml:space="preserve" text-anchor="middle" x="217.16" y="-224.65" font-family="Times,serif" font-size="10.00">eps</text>
</g>
<!-- 13&#45;&gt;3 -->
<g id="edge28" class="edge">
<title>13-&gt;3</title>
<path fill="none" stroke="black" d="M369.95,-332.61C326.18,-325.03 220.22,-306.69 169.34,-297.88"/>
<polygon fill="black" stroke="black" points="170.17,-294.47 159.72,-296.21 168.98,-301.37 170.17,-294.47"/>
<text xml:space="preserve" text-anchor="middle" x="259.82" y="-317.5" font-family="Times,serif" font-size="10.00">a</text>
</g>
<!-- 13&#45;&gt;9 -->
<g id="edge29" class="edge">
<title>13-&gt;9</title>
<path fill="none" stroke="black" d="M370.5,-342.76C360.86,-346.27 348.99,-350.72 338.49,-355 314.17,-364.92 307.85,-366.99 284.49,-379 270.29,-386.3 254.89,-395.29 242.5,-402.79"/>
<polygon fill="black" stroke="black" points="240.89,-399.68 234.19,-407.89 244.55,-405.64 240.89,-399.68"/>
<text xml:space="preserve" text-anchor="middle" x="302.49" y="-382" font-family="Times,serif" font-size="10.00">b</text>
</g>
<!-- 13&#45;&gt;5 -->
<g id="edge37" class="edge">
<title>13-&gt;5</title>
<path fill="none" stroke="black" d="M395.45,-315.6C400.18,-296.74 410.01,-269.39 429.21,-254 488.21,-206.69 583.06,-205.47 630.3,-208.31"/>
<polygon fill="black" stroke="black" points="630.03,-211.8 640.26,-209.03 630.54,-204.82 630.03,-211.8"/>
<text xml:space="preserve" text-anchor="middle" x="526.59" y="-217.57" font-family="Times,serif" font-size="10.00">eps</text>
</g>
<!-- 13&#45;&gt;7 -->
<g id="edge40" class="edge">
<title>13-&gt;7</title>
<path fill="none" stroke="black" d="M406.65,-349.46C413.3,-354.98 421.36,-361.2 429.21,-366 459.48,-384.52 473.65,-377.55 501.92,-399 564.24,-446.29 618.31,-522.55 643.65,-561.46"/>
<polygon fill="black" stroke="black" points="640.57,-563.15 648.92,-569.67 646.46,-559.37 640.57,-563.15"/>
<text xml:space="preserve" text-anchor="middle" x="526.59" y="-428.43" font-family="Times,serif" font-size="10.00">eps</text>
</g>
<!-- 13&#45;&gt;8 -->
<g id="edge43" class="edge">
<title>13-&gt;8</title>
<path fill="none" stroke="black" d="M377.5,-352.59C370.51,-361.73 361.23,-373.02 351.82,-382 344.39,-389.09 335.56,-396.03 327.49,-401.9"/>
<polygon fill="black" stroke="black" points="325.57,-398.97 319.41,-407.59 329.6,-404.69 325.57,-398.97"/>
<text xml:space="preserve" text-anchor="middle" x="345.15" y="-395.85" font-family="Times,serif" font-size="10.00">eps</text>
</g>
<!-- 10&#45;&gt;3 -->
<g id="edge22" class="edge">
<title>10-&gt;3</title>
<path fill="none" stroke="black" d="M739.52,-240.92C721.74,-198.82 672.4,-99.39 592.64,-70 484.17,-30.03 485.77,-64.21 429.21,-68 313.1,-75.78 282.35,-111.64 199.16,-193 177.9,-213.79 161.82,-244.02 152.04,-265.79"/>
<polygon fill="black" stroke="black" points="148.85,-264.35 148.11,-274.92 155.28,-267.12 148.85,-264.35"/>
<text xml:space="preserve" text-anchor="middle" x="435.87" y="-71" font-family="Times,serif" font-size="10.00">a</text>
</g>
<!-- 14 -->
<g id="node15" class="node">
<title>14</title>
<ellipse fill="none" stroke="black" cx="838.71" cy="-309" rx="20.69" ry="20.69"/>
<text xml:space="preserve" text-anchor="middle" x="838.71" y="-304.8" font-family="Times,serif" font-size="14.00">14</text>
</g>
<!-- 10&#45;&gt;14 -->
<g id="edge23" class="edge">
<title>10-&gt;14</title>
<path fill="none" stroke="black" d="M766.4,-249.95C776.69,-245.42 789.68,-242.24 800.02,-248 812.13,-254.75 820.83,-267.18 826.81,-279.06"/>
<polygon fill="black" stroke="black" points="823.46,-280.14 830.75,-287.82 829.84,-277.27 823.46,-280.14"/>
<text xml:space="preserve" text-anchor="middle" x="793.35" y="-251" font-family="Times,serif" font-size="10.00">b</text>
</g>
<!-- 14&#45;&gt;4 -->
<g id="edge31" class="edge">
<title>14-&gt;4</title>
<path fill="none" stroke="black" d="M834.32,-329.46C823.6,-386.72 784.62,-548.56 677.97,-613 595.09,-663.08 556.36,-612.99 460.54,-599 446.51,-596.95 442.14,-598.81 429.21,-593 423.61,-590.48 418.08,-586.98 413.06,-583.28"/>
<polygon fill="black" stroke="black" points="415.3,-580.6 405.31,-577.07 410.92,-586.06 415.3,-580.6"/>
<text xml:space="preserve" text-anchor="middle" x="617.3" y="-637.75" font-family="Times,serif" font-size="10.00">b</text>
</g>
<!-- 14&#45;&gt;2 -->
<g id="edge46" class="edge">
<title>14-&gt;2</title>
<path fill="none" stroke="black" d="M847.5,-328.01C862.83,-365.45 897,-448.86 914.67,-492"/>
<polygon fill="black" stroke="black" points="911.39,-493.21 918.42,-501.13 917.86,-490.55 911.39,-493.21"/>
<text xml:space="preserve" text-anchor="middle" x="884.07" y="-435.81" font-family="Times,serif" font-size="10.00">eps</text>
</g>
<!-- 14&#45;&gt;11 -->
<g id="edge30" class="edge">
<title>14-&gt;11</title>
<path fill="none" stroke="black" d="M818.4,-314.33C771.94,-327.31 650.41,-362.11 551.25,-398 537.59,-402.94 522.85,-409.4 510.51,-415.14"/>
<polygon fill="black" stroke="black" points="509.28,-411.85 501.75,-419.3 512.28,-418.18 509.28,-411.85"/>
<text xml:space="preserve" text-anchor="middle" x="659.97" y="-369.81" font-family="Times,serif" font-size="10.00">a</text>
</g>
<!-- 14&#45;&gt;6 -->
<g id="edge49" class="edge">
<title>14-&gt;6</title>
<path fill="none" stroke="black" d="M851.31,-292.14C866.23,-270.47 892.22,-232.7 909.2,-208.03"/>
<polygon fill="black" stroke="black" points="912.01,-210.12 914.79,-199.9 906.24,-206.15 912.01,-210.12"/>
<text xml:space="preserve" text-anchor="middle" x="884.07" y="-256.98" font-family="Times,serif" font-size="10.00">eps</text>
</g>
<!-- 14&#45;&gt;10 -->
<g id="edge52" class="edge">
<title>14-&gt;10</title>
<path fill="none" stroke="black" d="M821.61,-296.95C815.08,-292.31 807.36,-287.14 800.02,-283 792.97,-279.02 785.1,-275.2 777.7,-271.85"/>
<polygon fill="black" stroke="black" points="779.28,-268.72 768.72,-267.92 776.48,-275.13 779.28,-268.72"/>
<text xml:space="preserve" text-anchor="middle" x="793.35" y="-286" font-family="Times,serif" font-size="10.00">eps</text>
</g>
<!-- 14&#45;&gt;12 -->
<g id="edge55" class="edge">
<title>14-&gt;12</title>
<path fill="none" stroke="black" d="M817.94,-306.54C772.24,-300.84 659.01,-286.73 603.97,-279.87"/>
<polygon fill="black" stroke="black" points="604.7,-276.43 594.35,-278.67 603.84,-283.38 604.7,-276.43"/>
<text xml:space="preserve" text-anchor="middle" x="702.63" y="-295.88" font-family="Times,serif" font-size="10.00">eps</text>
</g>
<!-- 12&#45;&gt;1 -->
<g id="edge33" class="edge">
<title>12-&gt;1</title>
<path fill="none" stroke="black" d="M565.56,-255.96C559.93,-238.18 549.61,-212.4 533.25,-195 522.4,-183.46 517.14,-182.4 501.92,-178 403.67,-149.58 342.79,-157 284.49,-166 207.85,-177.84 185.14,-184.75 122.16,-230 107.28,-240.69 92.86,-255.18 81.74,-267.58"/>
<polygon fill="black" stroke="black" points="79.19,-265.17 75.25,-275 84.47,-269.77 79.19,-265.17"/>
<text xml:space="preserve" text-anchor="middle" x="302.49" y="-169" font-family="Times,serif" font-size="10.00">eps</text>
</g>
<!-- 12&#45;&gt;3 -->
<g id="edge26" class="edge">
<title>12-&gt;3</title>
<path fill="none" stroke="black" d="M564.52,-256.21C558.65,-241.17 548.54,-221.08 533.25,-209 495.85,-179.45 476.76,-179.71 429.21,-183 326.22,-190.13 287.97,-162.39 199.16,-215 178.77,-227.08 163.3,-249.38 153.48,-267.05"/>
<polygon fill="black" stroke="black" points="150.61,-264.99 149.06,-275.47 156.81,-268.24 150.61,-264.99"/>
<text xml:space="preserve" text-anchor="middle" x="345.15" y="-186.11" font-family="Times,serif" font-size="10.00">a</text>
</g>
<!-- 12&#45;&gt;4 -->
<g id="edge27" class="edge">
<title>12-&gt;4</title>
<path fill="none" stroke="black" d="M562.61,-294.69C552.01,-318.78 533.48,-362.08 519.92,-400 510.7,-425.82 516.34,-435.68 501.92,-459 496.06,-468.47 437.27,-520.32 429.21,-528 423.7,-533.24 417.75,-538.92 412.24,-544.18"/>
<polygon fill="black" stroke="black" points="409.97,-541.51 405.16,-550.94 414.81,-546.57 409.97,-541.51"/>
<text xml:space="preserve" text-anchor="middle" x="481.23" y="-502.18" font-family="Times,serif" font-size="10.00">b</text>
</g>
<!-- 12&#45;&gt;5 -->
<g id="edge36" class="edge">
<title>12-&gt;5</title>
<path fill="none" stroke="black" d="M589.73,-264.65C599.79,-257.71 612.78,-248.56 623.97,-240 628.17,-236.78 632.57,-233.26 636.78,-229.82"/>
<polygon fill="black" stroke="black" points="638.92,-232.59 644.37,-223.51 634.45,-227.21 638.92,-232.59"/>
<text xml:space="preserve" text-anchor="middle" x="617.3" y="-252.2" font-family="Times,serif" font-size="10.00">eps</text>
</g>
<!-- 12&#45;&gt;7 -->
<g id="edge39" class="edge">
<title>12-&gt;7</title>
<path fill="none" stroke="black" d="M578.95,-295.97C589.03,-329.89 609.67,-401.04 623.97,-462 633.49,-502.56 628.04,-514.73 641.97,-554 642.76,-556.22 643.68,-558.48 644.68,-560.72"/>
<polygon fill="black" stroke="black" points="641.44,-562.06 649.04,-569.44 647.7,-558.93 641.44,-562.06"/>
<text xml:space="preserve" text-anchor="middle" x="617.3" y="-465" font-family="Times,serif" font-size="10.00">eps</text>
</g>
<!-- 12&#45;&gt;8 -->
<g id="edge42" class="edge">
<title>12-&gt;8</title>
<path fill="none" stroke="black" d="M551.53,-281.06C541.79,-283.95 529.95,-288 519.92,-293 438.7,-333.53 435.64,-374.15 351.82,-409 345.46,-411.65 338.3,-413.52 331.49,-414.84"/>
<polygon fill="black" stroke="black" points="331.36,-411.32 322.03,-416.35 332.46,-418.23 331.36,-411.32"/>
<text xml:space="preserve" text-anchor="middle" x="435.87" y="-362.43" font-family="Times,serif" font-size="10.00">eps</text>
</g>
</g>
</svg>