<svg xmlns="http://www.w3.org/2000/svg" xmlns:xlink="http://www.w3.org/1999/xlink" width="396pt" height="356pt" viewBox="0.00 0.00 396.00 356.00">
<g id="graph0" class="graph" transform="scale(1 1) rotate(0) translate(4 352.44)">
<title>PDA</title>
<polygon fill="white" stroke="none" points="-4,4 -4,-352.44 392.34,-352.44 392.34,4 -4,4"/>
<!-- q1 -->
<g id="node1" class="node">
<title>q1</title>
<ellipse fill="none" stroke="black" cx="176.84" cy="-49.35" rx="20.69" ry="20.69"/>
<text xml:space="preserve" text-anchor="middle" x="176.84" y="-45.15" font-family="Times,serif" font-size="14.00">q1</text>
</g>
<!-- q1&#45;&gt;q1 -->
<g id="edge3" class="edge">
<title>q1-&gt;q1</title>
<path fill="none" stroke="black" d="M175.3,-70.44C175.15,-79.88 175.67,-88.04 176.84,-88.04 177.48,-88.04 177.93,-85.6 178.17,-81.85"/>
<polygon fill="black" stroke="black" points="181.67,-82.02 178.35,-71.96 174.67,-81.89 181.67,-82.02"/>
<text xml:space="preserve" text-anchor="middle" x="176.84" y="-92.24" font-family="Times,serif" font-size="14.00">ε, S -&gt; TTT</text>
</g>
<!-- q1&#45;&gt;q1 -->
<g id="edge4" class="edge">
<title>q1-&gt;q1</title>
<path fill="none" stroke="black" d="M174.19,-70.28C173.06,-87.77 173.94,-106.04 176.84,-106.04 179.11,-106.04 180.14,-94.89 179.95,-81.67"/>
<polygon fill="black" stroke="black" points="183.45,-81.65 179.55,-71.8 176.45,-81.93 183.45,-81.65"/>
<text xml:space="preserve" text-anchor="middle" x="176.84" y="-110.24" font-family="Times,serif" font-size="14.00">a, S -&gt; Sa</text>
</g>
<!-- q1&#45;&gt;q1 -->
<g id="edge5" class="edge">
<title>q1-&gt;q1</title>
<path fill="none" stroke="black" d="M173.47,-70C170.93,-94.85 172.05,-124.04 176.84,-124.04 180.92,-124.04 182.34,-102.88 181.1,-81.24"/>
<polygon fill="black" stroke="black" points="184.61,-81.2 180.33,-71.51 177.63,-81.75 184.61,-81.2"/>
<text xml:space="preserve" text-anchor="middle" x="176.84" y="-128.24" font-family="Times,serif" font-size="14.00">a, S -&gt; b</text>
</g>
<!-- q1&#45;&gt;q1 -->
<g id="edge6" class="edge">
<title>q1-&gt;q1</title>
<path fill="none" stroke="black" d="M172.97,-69.84C168.8,-101.64 170.09,-142.04 176.84,-142.04 182.82,-142.04 184.52,-110.28 181.92,-80.91"/>
<polygon fill="black" stroke="black" points="185.44,-80.9 180.88,-71.34 178.48,-81.66 185.44,-80.9"/>
<text xml:space="preserve" text-anchor="middle" x="176.84" y="-146.24" font-family="Times,serif" font-size="14.00">ε, T -&gt; SS</text>
</g>
<!-- q1&#45;&gt;q1 -->
<g id="edge7" class="edge">
<title>q1-&gt;q1</title>
<path fill="none" stroke="black" d="M172.55,-70C166.69,-108.48 168.12,-160.04 176.84,-160.04 184.74,-160.04 186.66,-117.69 182.59,-81.11"/>
<polygon fill="black" stroke="black" points="186.1,-80.96 181.33,-71.5 179.16,-81.87 186.1,-80.96"/>
<text xml:space="preserve" text-anchor="middle" x="176.84" y="-164.24" font-family="Times,serif" font-size="14.00">b, T -&gt; Tb</text>
</g>
<!-- q1&#45;&gt;q1 -->
<g id="edge8" class="edge">
<title>q1-&gt;q1</title>
<path fill="none" stroke="black" d="M172.25,-69.94C164.58,-114.97 166.11,-178.04 176.84,-178.04 186.71,-178.04 188.8,-124.67 183.1,-81.06"/>
<polygon fill="black" stroke="black" points="186.6,-80.81 181.65,-71.44 179.67,-81.85 186.6,-80.81"/>
<text xml:space="preserve" text-anchor="middle" x="176.84" y="-182.24" font-family="Times,serif" font-size="14.00">b, T -&gt; a</text>
</g>
<!-- q1&#45;&gt;q1 -->
<g id="edge9" class="edge">
<title>q1-&gt;q1</title>
<path fill="none" stroke="black" d="M172.05,-69.69C162.47,-121.17 164.06,-196.04 176.84,-196.04 188.72,-196.04 190.93,-131.33 183.49,-80.86"/>
<polygon fill="black" stroke="black" points="186.97,-80.48 181.88,-71.19 180.07,-81.62 186.97,-80.48"/>
<text xml:space="preserve" text-anchor="middle" x="176.84" y="-200.24" font-family="Times,serif" font-size="14.00">a, a -&gt; ε</text>
</g>
<!-- q1&#45;&gt;q1 -->
<g id="edge10" class="edge">
<title>q1-&gt;q1</title>
<path fill="none" stroke="black" d="M171.81,-69.88C160.37,-127.71 162.04,-214.04 176.84,-214.04 190.71,-214.04 193.05,-138.17 183.86,-81.03"/>
<polygon fill="black" stroke="black" points="187.34,-80.6 182.14,-71.37 180.45,-81.83 187.34,-80.6"/>
<text xml:space="preserve" text-anchor="middle" x="176.84" y="-218.24" font-family="Times,serif" font-size="14.00">b, b -&gt; ε</text>
</g>
<!-- q_accept -->
<g id="node2" class="node">
<title>q_accept</title>
<ellipse fill="none" stroke="black" cx="338.99" cy="-49.35" rx="45.35" ry="45.35"/>
<ellipse fill="none" stroke="black" cx="338.99" cy="-49.35" rx="49.35" ry="49.35"/>
<text xml:space="preserve" text-anchor="middle" x="338.99" y="-45.15" font-family="Times,serif" font-size="14.00">q_accept</text>
</g>
<!-- q1&#45;&gt;q_accept -->
<g id="edge11" class="edge">
<title>q1-&gt;q_accept</title>
<path fill="none" stroke="black" d="M197.8,-49.35C217.77,-49.35 249.5,-49.35 277.73,-49.35"/>
<polygon fill="black" stroke="black" points="277.64,-52.85 287.64,-49.35 277.64,-45.85 277.64,-52.85"/>
<text xml:space="preserve" text-anchor="middle" x="243.59" y="-53.55" font-family="Times,serif" font-size="14.00">ε, Z0 -&gt; ε</text>
</g>
<!-- start_node -->
<g id="node3" class="node">
<title>start_node</title>
<ellipse fill="black" stroke="black" cx="1.8" cy="-49.35" rx="1.8" ry="1.8"/>
</g>
<!-- q0 -->
<g id="node4" class="node">
<title>q0</title>
<ellipse fill="black" stroke="black" cx="42.4" cy="-49.35" rx="1.8" ry="1.8"/>
</g>
<!-- start_node&#45;&gt;q0 -->
<g id="edge1" class="edge">
<title>start_node-&gt;q0</title>
<path fill="none" stroke="black" d="M4.08,-49.35C7.97,-49.35 19.92,-49.35 29.26,-49.35"/>
<polygon fill="black" stroke="black" points="29.12,-52.85 39.12,-49.35 29.12,-45.85 29.12,-52.85"/>
</g>
<!-- q0&#45;&gt;q1 -->
<g id="edge2" class="edge">
<title>q0-&gt;q1</title>
<path fill="none" stroke="black" d="M44.25,-49.35C51.8,-49.35 108.26,-49.35 144.73,-49.35"/>
<polygon fill="black" stroke="black" points="144.27,-52.85 154.27,-49.35 144.27,-45.85 144.27,-52.85"/>
<text xml:space="preserve" text-anchor="middle" x="100.17" y="-53.55" font-family="Times,serif" font-size="14.00">ε, Z0 -&gt; S Z0</text>
</g>
</g>
</svg>