<svg xmlns="http://www.w3.org/2000/svg" xmlns:xlink="http://www.w3.org/1999/xlink" width="1085pt" height="302pt" viewBox="0.00 0.00 1085.00 302.00">
<g id="graph0" class="graph" transform="scale(1 1) rotate(0) translate(4 297.93)">
<title>FiniteAutomaton</title>
<polygon fill="white" stroke="none" points="-4,4 -4,-297.93 1080.78,-297.93 1080.78,4 -4,4"/>
<!-- initial -->
<g id="node1" class="node">
<title>initial</title>
<ellipse fill="black" stroke="black" cx="1.8" cy="-161.06" rx="1.8" ry="1.8"/>
</g>
<!-- 1 -->
<g id="node2" class="node">
<title>1</title>
<ellipse fill="none" stroke="black" cx="59.15" cy="-161.06" rx="18.55" ry="18.55"/>
<text xml:space="preserve" text-anchor="middle" x="59.15" y="-156.86" font-family="Times,serif" font-size="14.00">&amp;</text>
</g>
<!-- initial&#45;&gt;1 -->
<g id="edge1" class="edge">
<title>initial-&gt;1</title>
<path fill="none" stroke="black" d="M3.76,-161.06C6.96,-161.06 17.66,-161.06 28.73,-161.06"/>
<polygon fill="black" stroke="black" points="28.6,-164.56 38.6,-161.06 28.6,-157.56 28.6,-164.56"/>
</g>
<!-- 19 -->
<g id="node5" class="node">
<title>19</title>
<ellipse fill="none" stroke="black" cx="150.76" cy="-229.06" rx="26.06" ry="26.06"/>
<ellipse fill="none" stroke="black" cx="150.76" cy="-229.06" rx="30.06" ry="30.06"/>
<text xml:space="preserve" text-anchor="middle" x="150.76" y="-224.86" font-family="Times,serif" font-size="14.00">S19</text>
</g>
<!-- 1&#45;&gt;19 -->
<g id="edge28" class="edge">
<title>1-&gt;19</title>
<path fill="none" stroke="black" d="M74.55,-171.99C86.1,-180.76 102.76,-193.4 117.47,-204.56"/>
<polygon fill="black" stroke="black" points="115.02,-207.1 125.1,-210.35 119.25,-201.52 115.02,-207.1"/>
<text xml:space="preserve" text-anchor="middle" x="99.2" y="-197.23" font-family="Times,serif" font-size="14.00">ε</text>
</g>
<!-- a1 -->
<g id="node19" class="node">
<title>a1</title>
<ellipse fill="none" stroke="black" cx="150.76" cy="-161.06" rx="20.15" ry="20.15"/>
<text xml:space="preserve" text-anchor="middle" x="150.76" y="-156.86" font-family="Times,serif" font-size="14.00">a1</text>
</g>
<!-- 1&#45;&gt;a1 -->
<g id="edge18" class="edge">
<title>1-&gt;a1</title>
<path fill="none" stroke="black" d="M77.85,-161.06C89.53,-161.06 105.14,-161.06 118.83,-161.06"/>
<polygon fill="black" stroke="black" points="118.71,-164.56 128.71,-161.06 118.71,-157.56 118.71,-164.56"/>
<text xml:space="preserve" text-anchor="middle" x="99.2" y="-165.26" font-family="Times,serif" font-size="14.00">ε</text>
</g>
<!-- 18 -->
<g id="node22" class="node">
<title>18</title>
<ellipse fill="none" stroke="black" cx="150.76" cy="-67.06" rx="20.69" ry="20.69"/>
<text xml:space="preserve" text-anchor="middle" x="150.76" y="-62.86" font-family="Times,serif" font-size="14.00">18</text>
</g>
<!-- 1&#45;&gt;18 -->
<g id="edge19" class="edge">
<title>1-&gt;18</title>
<path fill="none" stroke="black" d="M72.61,-147.99C86.95,-132.95 110.77,-107.96 128.16,-89.72"/>
<polygon fill="black" stroke="black" points="130.22,-92.63 134.59,-82.98 125.16,-87.8 130.22,-92.63"/>
<text xml:space="preserve" text-anchor="middle" x="99.2" y="-126.68" font-family="Times,serif" font-size="14.00">ε</text>
</g>
<!-- 11 -->
<g id="node3" class="node">
<title>11</title>
<ellipse fill="none" stroke="black" cx="471.57" cy="-38.06" rx="26.06" ry="26.06"/>
<ellipse fill="none" stroke="black" cx="471.57" cy="-38.06" rx="30.06" ry="30.06"/>
<text xml:space="preserve" text-anchor="middle" x="471.57" y="-33.86" font-family="Times,serif" font-size="14.00">S11</text>
</g>
<!-- 12 -->
<g id="node16" class="node">
<title>12</title>
<ellipse fill="none" stroke="black" cx="570.7" cy="-63.06" rx="26.06" ry="26.06"/>
<text xml:space="preserve" text-anchor="middle" x="570.7" y="-58.86" font-family="Times,serif" font-size="14.00">S12</text>
</g>
<!-- 11&#45;&gt;12 -->
<g id="edge24" class="edge">
<title>11-&gt;12</title>
<path fill="none" stroke="black" d="M500.24,-48.24C506.56,-50.35 513.29,-52.42 519.64,-54.06 524.03,-55.2 528.68,-56.24 533.3,-57.18"/>
<polygon fill="black" stroke="black" points="532.62,-60.62 543.1,-59.03 533.92,-53.74 532.62,-60.62"/>
<text xml:space="preserve" text-anchor="middle" x="523.14" y="-59.89" font-family="Times,serif" font-size="14.00">a</text>
</g>
<!-- 17 -->
<g id="node4" class="node">
<title>17</title>
<ellipse fill="none" stroke="black" cx="1046.72" cy="-133.06" rx="26.06" ry="26.06"/>
<ellipse fill="none" stroke="black" cx="1046.72" cy="-133.06" rx="30.06" ry="30.06"/>
<text xml:space="preserve" text-anchor="middle" x="1046.72" y="-128.86" font-family="Times,serif" font-size="14.00">S17</text>
</g>
<!-- 17&#45;&gt;17 -->
<g id="edge13" class="edge">
<title>17-&gt;17</title>
<path fill="none" stroke="black" d="M1036.16,-161.68C1035.81,-172.35 1039.33,-181.13 1046.72,-181.13 1051.21,-181.13 1054.28,-177.87 1055.91,-172.91"/>
<polygon fill="black" stroke="black" points="1059.36,-173.54 1057.09,-163.19 1052.41,-172.69 1059.36,-173.54"/>
<text xml:space="preserve" text-anchor="middle" x="1046.72" y="-185.33" font-family="Times,serif" font-size="14.00">a,b</text>
</g>
<!-- 19&#45;&gt;19 -->
<g id="edge29" class="edge">
<title>19-&gt;19</title>
<path fill="none" stroke="black" d="M141.11,-257.68C140.8,-268.35 144.01,-277.13 150.76,-277.13 154.87,-277.13 157.67,-273.87 159.16,-268.91"/>
<polygon fill="black" stroke="black" points="162.62,-269.51 160.24,-259.19 155.66,-268.74 162.62,-269.51"/>
<text xml:space="preserve" text-anchor="middle" x="150.76" y="-281.33" font-family="Times,serif" font-size="14.00">a</text>
</g>
<!-- 20 -->
<g id="node6" class="node">
<title>20</title>
<ellipse fill="none" stroke="black" cx="263.6" cy="-238.06" rx="26.06" ry="26.06"/>
<ellipse fill="none" stroke="black" cx="263.6" cy="-238.06" rx="30.06" ry="30.06"/>
<text xml:space="preserve" text-anchor="middle" x="263.6" y="-233.86" font-family="Times,serif" font-size="14.00">S20</text>
</g>
<!-- 19&#45;&gt;20 -->
<g id="edge30" class="edge">
<title>19-&gt;20</title>
<path fill="none" stroke="black" d="M180.84,-233.14C186.78,-233.87 193,-234.56 198.82,-235.06 206.3,-235.72 214.29,-236.23 221.99,-236.64"/>
<polygon fill="black" stroke="black" points="221.69,-240.13 231.85,-237.11 222.02,-233.14 221.69,-240.13"/>
<text xml:space="preserve" text-anchor="middle" x="207.18" y="-240.42" font-family="Times,serif" font-size="14.00">b</text>
</g>
<!-- 20&#45;&gt;19 -->
<g id="edge31" class="edge">
<title>20-&gt;19</title>
<path fill="none" stroke="black" d="M237.55,-222.69C230.66,-219.22 223.02,-216.05 215.54,-214.26 207.25,-212.29 198.35,-212.74 189.91,-214.36"/>
<polygon fill="black" stroke="black" points="189.07,-210.96 180.24,-216.81 190.8,-217.75 189.07,-210.96"/>
<text xml:space="preserve" text-anchor="middle" x="207.18" y="-218.46" font-family="Times,serif" font-size="14.00">a</text>
</g>
<!-- 2 -->
<g id="node7" class="node">
<title>2</title>
<ellipse fill="none" stroke="black" cx="263.6" cy="-164.06" rx="21.24" ry="21.24"/>
<text xml:space="preserve" text-anchor="middle" x="263.6" y="-159.86" font-family="Times,serif" font-size="14.00">S2</text>
</g>
<!-- 3 -->
<g id="node8" class="node">
<title>3</title>
<ellipse fill="none" stroke="black" cx="362.73" cy="-228.06" rx="21.24" ry="21.24"/>
<text xml:space="preserve" text-anchor="middle" x="362.73" y="-223.86" font-family="Times,serif" font-size="14.00">S3</text>
</g>
<!-- 2&#45;&gt;3 -->
<g id="edge3" class="edge">
<title>2-&gt;3</title>
<path fill="none" stroke="black" d="M281.97,-175.51C296.75,-185.24 318.21,-199.39 335.15,-210.55"/>
<polygon fill="black" stroke="black" points="332.98,-213.31 343.25,-215.89 336.83,-207.46 332.98,-213.31"/>
<text xml:space="preserve" text-anchor="middle" x="315.17" y="-202.18" font-family="Times,serif" font-size="14.00">b</text>
</g>
<!-- 4 -->
<g id="node9" class="node">
<title>4</title>
<ellipse fill="none" stroke="black" cx="471.57" cy="-166.06" rx="21.24" ry="21.24"/>
<text xml:space="preserve" text-anchor="middle" x="471.57" y="-161.86" font-family="Times,serif" font-size="14.00">S4</text>
</g>
<!-- 2&#45;&gt;4 -->
<g id="edge4" class="edge">
<title>2-&gt;4</title>
<path fill="none" stroke="black" d="M285.1,-164.26C321.02,-164.61 395.57,-165.34 438.41,-165.75"/>
<polygon fill="black" stroke="black" points="438.3,-169.25 448.33,-165.85 438.37,-162.25 438.3,-169.25"/>
<text xml:space="preserve" text-anchor="middle" x="362.73" y="-169.46" font-family="Times,serif" font-size="14.00">a</text>
</g>
<!-- 5 -->
<g id="node10" class="node">
<title>5</title>
<ellipse fill="none" stroke="black" cx="471.57" cy="-236.06" rx="21.24" ry="21.24"/>
<text xml:space="preserve" text-anchor="middle" x="471.57" y="-231.86" font-family="Times,serif" font-size="14.00">S5</text>
</g>
<!-- 3&#45;&gt;5 -->
<g id="edge5" class="edge">
<title>3-&gt;5</title>
<path fill="none" stroke="black" d="M384.33,-229.61C399.7,-230.76 420.99,-232.35 438.58,-233.67"/>
<polygon fill="black" stroke="black" points="438.29,-237.16 448.53,-234.41 438.82,-230.18 438.29,-237.16"/>
<text xml:space="preserve" text-anchor="middle" x="415.15" y="-236.5" font-family="Times,serif" font-size="14.00">a</text>
</g>
<!-- 6 -->
<g id="node11" class="node">
<title>6</title>
<ellipse fill="none" stroke="black" cx="570.7" cy="-226.06" rx="21.24" ry="21.24"/>
<text xml:space="preserve" text-anchor="middle" x="570.7" y="-221.86" font-family="Times,serif" font-size="14.00">S6</text>
</g>
<!-- 4&#45;&gt;6 -->
<g id="edge15" class="edge">
<title>4-&gt;6</title>
<path fill="none" stroke="black" d="M489.94,-176.79C504.63,-185.86 525.92,-199.02 542.81,-209.45"/>
<polygon fill="black" stroke="black" points="540.52,-212.15 550.87,-214.43 544.2,-206.2 540.52,-212.15"/>
<text xml:space="preserve" text-anchor="middle" x="523.14" y="-202.06" font-family="Times,serif" font-size="14.00">b</text>
</g>
<!-- 8 -->
<g id="node13" class="node">
<title>8</title>
<ellipse fill="none" stroke="black" cx="570.7" cy="-166.06" rx="21.24" ry="21.24"/>
<text xml:space="preserve" text-anchor="middle" x="570.7" y="-161.86" font-family="Times,serif" font-size="14.00">S8</text>
</g>
<!-- 4&#45;&gt;8 -->
<g id="edge16" class="edge">
<title>4-&gt;8</title>
<path fill="none" stroke="black" d="M493.1,-164.19C503.2,-163.47 515.55,-162.9 526.64,-163.26 530.31,-163.38 534.15,-163.56 537.96,-163.77"/>
<polygon fill="black" stroke="black" points="537.42,-167.24 547.61,-164.36 537.85,-160.25 537.42,-167.24"/>
<text xml:space="preserve" text-anchor="middle" x="523.14" y="-167.46" font-family="Times,serif" font-size="14.00">a</text>
</g>
<!-- 5&#45;&gt;6 -->
<g id="edge6" class="edge">
<title>5-&gt;6</title>
<path fill="none" stroke="black" d="M493.17,-233.94C506.18,-232.6 523.24,-230.85 537.96,-229.33"/>
<polygon fill="black" stroke="black" points="538.04,-232.84 547.63,-228.34 537.32,-225.88 538.04,-232.84"/>
<text xml:space="preserve" text-anchor="middle" x="523.14" y="-235.26" font-family="Times,serif" font-size="14.00">a</text>
</g>
<!-- 7 -->
<g id="node12" class="node">
<title>7</title>
<ellipse fill="none" stroke="black" cx="665.83" cy="-166.06" rx="21.24" ry="21.24"/>
<text xml:space="preserve" text-anchor="middle" x="665.83" y="-161.86" font-family="Times,serif" font-size="14.00">S7</text>
</g>
<!-- 6&#45;&gt;7 -->
<g id="edge7" class="edge">
<title>6-&gt;7</title>
<path fill="none" stroke="black" d="M589.22,-214.78C602.88,-205.98 622.09,-193.6 637.72,-183.53"/>
<polygon fill="black" stroke="black" points="639.61,-186.48 646.12,-178.12 635.82,-180.59 639.61,-186.48"/>
<text xml:space="preserve" text-anchor="middle" x="618.27" y="-202.06" font-family="Times,serif" font-size="14.00">a</text>
</g>
<!-- 14 -->
<g id="node18" class="node">
<title>14</title>
<ellipse fill="none" stroke="black" cx="760.17" cy="-133.06" rx="26.06" ry="26.06"/>
<text xml:space="preserve" text-anchor="middle" x="760.17" y="-128.86" font-family="Times,serif" font-size="14.00">S14</text>
</g>
<!-- 7&#45;&gt;14 -->
<g id="edge8" class="edge">
<title>7-&gt;14</title>
<path fill="none" stroke="black" d="M685.96,-159.23C697.11,-155.24 711.49,-150.1 724.56,-145.43"/>
<polygon fill="black" stroke="black" points="725.46,-148.83 733.7,-142.17 723.11,-142.24 725.46,-148.83"/>
<text xml:space="preserve" text-anchor="middle" x="713" y="-154.75" font-family="Times,serif" font-size="14.00">a</text>
</g>
<!-- 8&#45;&gt;7 -->
<g id="edge17" class="edge">
<title>8-&gt;7</title>
<path fill="none" stroke="black" d="M592.37,-166.06C604.31,-166.06 619.57,-166.06 633.01,-166.06"/>
<polygon fill="black" stroke="black" points="632.71,-169.56 642.71,-166.06 632.71,-162.56 632.71,-169.56"/>
<text xml:space="preserve" text-anchor="middle" x="618.27" y="-170.26" font-family="Times,serif" font-size="14.00">b</text>
</g>
<!-- 9 -->
<g id="node14" class="node">
<title>9</title>
<ellipse fill="none" stroke="black" cx="263.6" cy="-67.06" rx="21.24" ry="21.24"/>
<text xml:space="preserve" text-anchor="middle" x="263.6" y="-62.86" font-family="Times,serif" font-size="14.00">S9</text>
</g>
<!-- 10 -->
<g id="node15" class="node">
<title>10</title>
<ellipse fill="none" stroke="black" cx="362.73" cy="-50.06" rx="26.06" ry="26.06"/>
<text xml:space="preserve" text-anchor="middle" x="362.73" y="-45.86" font-family="Times,serif" font-size="14.00">S10</text>
</g>
<!-- 9&#45;&gt;10 -->
<g id="edge22" class="edge">
<title>9-&gt;10</title>
<path fill="none" stroke="black" d="M284.73,-63.54C296.54,-61.48 311.81,-58.8 325.63,-56.38"/>
<polygon fill="black" stroke="black" points="326.06,-59.86 335.31,-54.69 324.85,-52.97 326.06,-59.86"/>
<text xml:space="preserve" text-anchor="middle" x="315.17" y="-62.76" font-family="Times,serif" font-size="14.00">a</text>
</g>
<!-- 10&#45;&gt;11 -->
<g id="edge23" class="edge">
<title>10-&gt;11</title>
<path fill="none" stroke="black" d="M389.05,-47.22C401.3,-45.85 416.3,-44.16 430.07,-42.61"/>
<polygon fill="black" stroke="black" points="430.22,-46.12 439.77,-41.52 429.44,-39.16 430.22,-46.12"/>
<text xml:space="preserve" text-anchor="middle" x="415.15" y="-49.34" font-family="Times,serif" font-size="14.00">a,b</text>
</g>
<!-- 12&#45;&gt;11 -->
<g id="edge27" class="edge">
<title>12-&gt;11</title>
<path fill="none" stroke="black" d="M550.46,-46.06C543.45,-40.91 535.14,-35.92 526.64,-33.26 522.13,-31.86 517.32,-31.19 512.5,-31.01"/>
<polygon fill="black" stroke="black" points="512.74,-27.5 502.87,-31.36 512.99,-34.5 512.74,-27.5"/>
<text xml:space="preserve" text-anchor="middle" x="523.14" y="-37.46" font-family="Times,serif" font-size="14.00">b</text>
</g>
<!-- 13 -->
<g id="node17" class="node">
<title>13</title>
<ellipse fill="none" stroke="black" cx="665.83" cy="-26.06" rx="26.06" ry="26.06"/>
<text xml:space="preserve" text-anchor="middle" x="665.83" y="-21.86" font-family="Times,serif" font-size="14.00">S13</text>
</g>
<!-- 12&#45;&gt;13 -->
<g id="edge25" class="edge">
<title>12-&gt;13</title>
<path fill="none" stroke="black" d="M595.2,-53.73C605.93,-49.47 618.84,-44.34 630.61,-39.66"/>
<polygon fill="black" stroke="black" points="631.61,-43.03 639.61,-36.09 629.02,-36.53 631.61,-43.03"/>
<text xml:space="preserve" text-anchor="middle" x="618.27" y="-49.87" font-family="Times,serif" font-size="14.00">a</text>
</g>
<!-- 13&#45;&gt;11 -->
<g id="edge26" class="edge">
<title>13-&gt;11</title>
<path fill="none" stroke="black" d="M640.31,-18.75C615.93,-12.49 577.54,-5.34 544.64,-11.26 533.01,-13.36 520.81,-17.2 509.82,-21.35"/>
<polygon fill="black" stroke="black" points="508.71,-18.02 500.71,-24.97 511.3,-24.53 508.71,-18.02"/>
<text xml:space="preserve" text-anchor="middle" x="570.7" y="-15.46" font-family="Times,serif" font-size="14.00">b</text>
</g>
<!-- 14&#45;&gt;2 -->
<g id="edge9" class="edge">
<title>14-&gt;2</title>
<path fill="none" stroke="black" d="M734.68,-126.46C716.18,-122.06 690.1,-117.06 666.83,-117.06 361.73,-117.06 361.73,-117.06 361.73,-117.06 335.37,-117.06 308.64,-131.26 289.92,-144.05"/>
<polygon fill="black" stroke="black" points="287.95,-141.16 281.87,-149.84 292.04,-146.84 287.95,-141.16"/>
<text xml:space="preserve" text-anchor="middle" x="523.14" y="-121.26" font-family="Times,serif" font-size="14.00">a</text>
</g>
<!-- 15 -->
<g id="node20" class="node">
<title>15</title>
<ellipse fill="none" stroke="black" cx="859.64" cy="-133.06" rx="20.69" ry="20.69"/>
<text xml:space="preserve" text-anchor="middle" x="859.64" y="-128.86" font-family="Times,serif" font-size="14.00">15</text>
</g>
<!-- 14&#45;&gt;15 -->
<g id="edge10" class="edge">
<title>14-&gt;15</title>
<path fill="none" stroke="black" d="M786.53,-133.06C798.96,-133.06 814.07,-133.06 827.23,-133.06"/>
<polygon fill="black" stroke="black" points="827.13,-136.56 837.13,-133.06 827.13,-129.56 827.13,-136.56"/>
<text xml:space="preserve" text-anchor="middle" x="812.59" y="-137.26" font-family="Times,serif" font-size="14.00">a,b</text>
</g>
<!-- a1&#45;&gt;2 -->
<g id="edge2" class="edge">
<title>a1-&gt;2</title>
<path fill="none" stroke="black" d="M171.32,-161.59C187.79,-162.04 211.67,-162.69 230.87,-163.21"/>
<polygon fill="black" stroke="black" points="230.51,-166.7 240.6,-163.47 230.7,-159.7 230.51,-166.7"/>
<text xml:space="preserve" text-anchor="middle" x="207.18" y="-166.94" font-family="Times,serif" font-size="14.00">a</text>
</g>
<!-- a1&#45;&gt;9 -->
<g id="edge14" class="edge">
<title>a1-&gt;9</title>
<path fill="none" stroke="black" d="M166.71,-148.39C185.01,-132.86 216.27,-106.36 238.1,-87.84"/>
<polygon fill="black" stroke="black" points="240.3,-90.57 245.66,-81.43 235.77,-85.23 240.3,-90.57"/>
<text xml:space="preserve" text-anchor="middle" x="207.18" y="-123.89" font-family="Times,serif" font-size="14.00">a,b</text>
</g>
<!-- 16 -->
<g id="node21" class="node">
<title>16</title>
<ellipse fill="none" stroke="black" cx="943.24" cy="-133.06" rx="20.69" ry="20.69"/>
<text xml:space="preserve" text-anchor="middle" x="943.24" y="-128.86" font-family="Times,serif" font-size="14.00">16</text>
</g>
<!-- 15&#45;&gt;16 -->
<g id="edge11" class="edge">
<title>15-&gt;16</title>
<path fill="none" stroke="black" d="M880.81,-133.06C889.91,-133.06 900.85,-133.06 910.97,-133.06"/>
<polygon fill="black" stroke="black" points="910.79,-136.56 920.79,-133.06 910.79,-129.56 910.79,-136.56"/>
<text xml:space="preserve" text-anchor="middle" x="901.44" y="-137.26" font-family="Times,serif" font-size="14.00">a</text>
</g>
<!-- 16&#45;&gt;17 -->
<g id="edge12" class="edge">
<title>16-&gt;17</title>
<path fill="none" stroke="black" d="M964.29,-133.06C975.93,-133.06 991.03,-133.06 1005.05,-133.06"/>
<polygon fill="black" stroke="black" points="1004.97,-136.56 1014.97,-133.06 1004.97,-129.56 1004.97,-136.56"/>
<text xml:space="preserve" text-anchor="middle" x="990.29" y="-137.26" font-family="Times,serif" font-size="14.00">a,b</text>
</g>
<!-- 18&#45;&gt;9 -->
<g id="edge21" class="edge">
<title>18-&gt;9</title>
<path fill="none" stroke="black" d="M171.83,-67.06C188.18,-67.06 211.58,-67.06 230.53,-67.06"/>
<polygon fill="black" stroke="black" points="230.41,-70.56 240.41,-67.06 230.41,-63.56 230.41,-70.56"/>
<text xml:space="preserve" text-anchor="middle" x="207.18" y="-71.26" font-family="Times,serif" font-size="14.00">a,b</text>
</g>
<!-- 18&#45;&gt;18 -->
<g id="edge20" class="edge">
<title>18-&gt;18</title>
<path fill="none" stroke="black" d="M141.55,-85.78C139.84,-96.18 142.9,-105.76 150.76,-105.76 155.55,-105.76 158.56,-102.2 159.79,-97.07"/>
<polygon fill="black" stroke="black" points="163.28,-97.34 159.94,-87.29 156.29,-97.23 163.28,-97.34"/>
<text xml:space="preserve" text-anchor="middle" x="150.76" y="-109.96" font-family="Times,serif" font-size="14.00">a,b</text>
</g>
</g>
</svg>