<svg xmlns="http://www.w3.org/2000/svg" xmlns:xlink="http://www.w3.org/1999/xlink" width="584pt" height="281pt" viewBox="0.00 0.00 584.00 281.00">
<g id="graph0" class="graph" transform="scale(1 1) rotate(0) translate(4 277.3)">
<title>FiniteAutomaton</title>
<polygon fill="white" stroke="none" points="-4,4 -4,-277.3 580.48,-277.3 580.48,4 -4,4"/>
<!-- initial -->
<g id="node1" class="node">
<title>initial</title>
<ellipse fill="black" stroke="black" cx="1.8" cy="-133.06" rx="1.8" ry="1.8"/>
</g>
<!-- 1 -->
<g id="node2" class="node">
<title>1</title>
<ellipse fill="none" stroke="black" cx="61.84" cy="-133.06" rx="21.24" ry="21.24"/>
<text xml:space="preserve" text-anchor="middle" x="61.84" y="-128.86" font-family="Times,serif" font-size="14.00">S1</text>
</g>
<!-- initial&#45;&gt;1 -->
<g id="edge1" class="edge">
<title>initial-&gt;1</title>
<path fill="none" stroke="black" d="M3.81,-133.06C7.06,-133.06 17.72,-133.06 28.95,-133.06"/>
<polygon fill="black" stroke="black" points="28.62,-136.56 38.62,-133.06 28.62,-129.56 28.62,-136.56"/>
</g>
<!-- 2 -->
<g id="node4" class="node">
<title>2</title>
<ellipse fill="none" stroke="black" cx="157.02" cy="-182.06" rx="21.24" ry="21.24"/>
<text xml:space="preserve" text-anchor="middle" x="157.02" y="-177.86" font-family="Times,serif" font-size="14.00">S2</text>
</g>
<!-- 1&#45;&gt;2 -->
<g id="edge2" class="edge">
<title>1-&gt;2</title>
<path fill="none" stroke="black" d="M81.25,-142.75C94.52,-149.72 112.68,-159.27 127.78,-167.21"/>
<polygon fill="black" stroke="black" points="125.83,-170.14 136.31,-171.7 129.09,-163.95 125.83,-170.14"/>
<text xml:space="preserve" text-anchor="middle" x="109.43" y="-166.15" font-family="Times,serif" font-size="14.00">a</text>
</g>
<!-- 9 -->
<g id="node11" class="node">
<title>9</title>
<ellipse fill="none" stroke="black" cx="157.02" cy="-83.06" rx="21.24" ry="21.24"/>
<text xml:space="preserve" text-anchor="middle" x="157.02" y="-78.86" font-family="Times,serif" font-size="14.00">S9</text>
</g>
<!-- 1&#45;&gt;9 -->
<g id="edge12" class="edge">
<title>1-&gt;9</title>
<path fill="none" stroke="black" d="M77.96,-118.88C84.66,-113.14 92.88,-106.82 101.07,-102.26 108.52,-98.13 117.02,-94.63 125.07,-91.81"/>
<polygon fill="black" stroke="black" points="126.13,-95.14 134.56,-88.73 123.96,-88.49 126.13,-95.14"/>
<text xml:space="preserve" text-anchor="middle" x="109.43" y="-106.46" font-family="Times,serif" font-size="14.00">a,b</text>
</g>
<!-- 11 -->
<g id="node3" class="node">
<title>11</title>
<ellipse fill="none" stroke="black" cx="356.16" cy="-66.06" rx="26.06" ry="26.06"/>
<ellipse fill="none" stroke="black" cx="356.16" cy="-66.06" rx="30.06" ry="30.06"/>
<text xml:space="preserve" text-anchor="middle" x="356.16" y="-61.86" font-family="Times,serif" font-size="14.00">S11</text>
</g>
<!-- 12 -->
<g id="node13" class="node">
<title>12</title>
<ellipse fill="none" stroke="black" cx="455.29" cy="-26.06" rx="26.06" ry="26.06"/>
<text xml:space="preserve" text-anchor="middle" x="455.29" y="-21.86" font-family="Times,serif" font-size="14.00">S12</text>
</g>
<!-- 11&#45;&gt;12 -->
<g id="edge15" class="edge">
<title>11-&gt;12</title>
<path fill="none" stroke="black" d="M384.48,-54.82C395.65,-50.22 408.68,-44.85 420.45,-40"/>
<polygon fill="black" stroke="black" points="421.49,-43.36 429.41,-36.31 418.83,-36.88 421.49,-43.36"/>
<text xml:space="preserve" text-anchor="middle" x="407.73" y="-50.26" font-family="Times,serif" font-size="14.00">a</text>
</g>
<!-- 3 -->
<g id="node5" class="node">
<title>3</title>
<ellipse fill="none" stroke="black" cx="247.32" cy="-240.06" rx="21.24" ry="21.24"/>
<text xml:space="preserve" text-anchor="middle" x="247.32" y="-235.86" font-family="Times,serif" font-size="14.00">S3</text>
</g>
<!-- 2&#45;&gt;3 -->
<g id="edge3" class="edge">
<title>2-&gt;3</title>
<path fill="none" stroke="black" d="M175.47,-193.52C188.04,-201.78 205.25,-213.09 219.56,-222.49"/>
<polygon fill="black" stroke="black" points="217.37,-225.23 227.65,-227.8 221.21,-219.38 217.37,-225.23"/>
<text xml:space="preserve" text-anchor="middle" x="199.76" y="-215.26" font-family="Times,serif" font-size="14.00">b</text>
</g>
<!-- 4 -->
<g id="node6" class="node">
<title>4</title>
<ellipse fill="none" stroke="black" cx="356.16" cy="-182.06" rx="21.24" ry="21.24"/>
<text xml:space="preserve" text-anchor="middle" x="356.16" y="-177.86" font-family="Times,serif" font-size="14.00">S4</text>
</g>
<!-- 2&#45;&gt;4 -->
<g id="edge4" class="edge">
<title>2-&gt;4</title>
<path fill="none" stroke="black" d="M178.75,-182.06C213.22,-182.06 282.58,-182.06 323.31,-182.06"/>
<polygon fill="black" stroke="black" points="323.2,-185.56 333.2,-182.06 323.2,-178.56 323.2,-185.56"/>
<text xml:space="preserve" text-anchor="middle" x="247.32" y="-186.26" font-family="Times,serif" font-size="14.00">a</text>
</g>
<!-- 5 -->
<g id="node7" class="node">
<title>5</title>
<ellipse fill="none" stroke="black" cx="356.16" cy="-252.06" rx="21.24" ry="21.24"/>
<text xml:space="preserve" text-anchor="middle" x="356.16" y="-247.86" font-family="Times,serif" font-size="14.00">S5</text>
</g>
<!-- 3&#45;&gt;5 -->
<g id="edge5" class="edge">
<title>3-&gt;5</title>
<path fill="none" stroke="black" d="M268.92,-242.38C284.37,-244.11 305.79,-246.52 323.42,-248.5"/>
<polygon fill="black" stroke="black" points="322.79,-251.95 333.12,-249.59 323.58,-244.99 322.79,-251.95"/>
<text xml:space="preserve" text-anchor="middle" x="299.74" y="-250.62" font-family="Times,serif" font-size="14.00">a</text>
</g>
<!-- 6 -->
<g id="node8" class="node">
<title>6</title>
<ellipse fill="none" stroke="black" cx="455.29" cy="-242.06" rx="21.24" ry="21.24"/>
<text xml:space="preserve" text-anchor="middle" x="455.29" y="-237.86" font-family="Times,serif" font-size="14.00">S6</text>
</g>
<!-- 4&#45;&gt;6 -->
<g id="edge9" class="edge">
<title>4-&gt;6</title>
<path fill="none" stroke="black" d="M374.53,-192.79C389.22,-201.86 410.51,-215.02 427.4,-225.45"/>
<polygon fill="black" stroke="black" points="425.12,-228.15 435.46,-230.43 428.79,-222.2 425.12,-228.15"/>
<text xml:space="preserve" text-anchor="middle" x="407.73" y="-218.06" font-family="Times,serif" font-size="14.00">b</text>
</g>
<!-- 8 -->
<g id="node10" class="node">
<title>8</title>
<ellipse fill="none" stroke="black" cx="455.29" cy="-182.06" rx="21.24" ry="21.24"/>
<text xml:space="preserve" text-anchor="middle" x="455.29" y="-177.86" font-family="Times,serif" font-size="14.00">S8</text>
</g>
<!-- 4&#45;&gt;8 -->
<g id="edge10" class="edge">
<title>4-&gt;8</title>
<path fill="none" stroke="black" d="M377.69,-179.52C387.78,-178.54 400.14,-177.78 411.23,-178.26 414.9,-178.43 418.75,-178.67 422.56,-178.95"/>
<polygon fill="black" stroke="black" points="421.96,-182.41 432.22,-179.75 422.54,-175.43 421.96,-182.41"/>
<text xml:space="preserve" text-anchor="middle" x="407.73" y="-182.46" font-family="Times,serif" font-size="14.00">a</text>
</g>
<!-- 5&#45;&gt;6 -->
<g id="edge6" class="edge">
<title>5-&gt;6</title>
<path fill="none" stroke="black" d="M377.76,-249.94C390.77,-248.6 407.83,-246.85 422.55,-245.33"/>
<polygon fill="black" stroke="black" points="422.63,-248.84 432.22,-244.34 421.91,-241.88 422.63,-248.84"/>
<text xml:space="preserve" text-anchor="middle" x="407.73" y="-251.26" font-family="Times,serif" font-size="14.00">a</text>
</g>
<!-- 7 -->
<g id="node9" class="node">
<title>7</title>
<ellipse fill="none" stroke="black" cx="550.42" cy="-182.06" rx="21.24" ry="21.24"/>
<text xml:space="preserve" text-anchor="middle" x="550.42" y="-177.86" font-family="Times,serif" font-size="14.00">S7</text>
</g>
<!-- 6&#45;&gt;7 -->
<g id="edge7" class="edge">
<title>6-&gt;7</title>
<path fill="none" stroke="black" d="M473.81,-230.78C487.47,-221.98 506.68,-209.6 522.31,-199.53"/>
<polygon fill="black" stroke="black" points="524.2,-202.48 530.71,-194.12 520.41,-196.59 524.2,-202.48"/>
<text xml:space="preserve" text-anchor="middle" x="502.86" y="-218.06" font-family="Times,serif" font-size="14.00">a</text>
</g>
<!-- 7&#45;&gt;1 -->
<g id="edge8" class="edge">
<title>7-&gt;1</title>
<path fill="none" stroke="black" d="M534.23,-168.15C516.77,-153.67 486.62,-133.06 456.29,-133.06 156.02,-133.06 156.02,-133.06 156.02,-133.06 135.68,-133.06 112.84,-133.06 94.87,-133.06"/>
<polygon fill="black" stroke="black" points="95.08,-129.56 85.08,-133.06 95.08,-136.56 95.08,-129.56"/>
<text xml:space="preserve" text-anchor="middle" x="299.74" y="-137.26" font-family="Times,serif" font-size="14.00">a</text>
</g>
<!-- 8&#45;&gt;7 -->
<g id="edge11" class="edge">
<title>8-&gt;7</title>
<path fill="none" stroke="black" d="M476.96,-182.06C488.9,-182.06 504.16,-182.06 517.6,-182.06"/>
<polygon fill="black" stroke="black" points="517.3,-185.56 527.3,-182.06 517.3,-178.56 517.3,-185.56"/>
<text xml:space="preserve" text-anchor="middle" x="502.86" y="-186.26" font-family="Times,serif" font-size="14.00">b</text>
</g>
<!-- 10 -->
<g id="node12" class="node">
<title>10</title>
<ellipse fill="none" stroke="black" cx="247.32" cy="-78.06" rx="26.06" ry="26.06"/>
<text xml:space="preserve" text-anchor="middle" x="247.32" y="-73.86" font-family="Times,serif" font-size="14.00">S10</text>
</g>
<!-- 9&#45;&gt;10 -->
<g id="edge13" class="edge">
<title>9-&gt;10</title>
<path fill="none" stroke="black" d="M178.5,-81.9C187.78,-81.38 199.04,-80.74 209.69,-80.14"/>
<polygon fill="black" stroke="black" points="209.6,-83.65 219.39,-79.59 209.21,-76.66 209.6,-83.65"/>
<text xml:space="preserve" text-anchor="middle" x="199.76" y="-85.06" font-family="Times,serif" font-size="14.00">a</text>
</g>
<!-- 10&#45;&gt;11 -->
<g id="edge14" class="edge">
<title>10-&gt;11</title>
<path fill="none" stroke="black" d="M273.64,-75.22C285.89,-73.85 300.89,-72.16 314.66,-70.61"/>
<polygon fill="black" stroke="black" points="314.81,-74.12 324.36,-69.52 314.03,-67.16 314.81,-74.12"/>
<text xml:space="preserve" text-anchor="middle" x="299.74" y="-77.34" font-family="Times,serif" font-size="14.00">a,b</text>
</g>
<!-- 12&#45;&gt;11 -->
<g id="edge18" class="edge">
<title>12-&gt;11</title>
<path fill="none" stroke="black" d="M429.21,-21.36C421.02,-20.81 412.03,-21.3 404.23,-24.26 397.09,-26.98 390.34,-31.32 384.3,-36.21"/>
<polygon fill="black" stroke="black" points="382.25,-33.34 377.13,-42.62 386.92,-38.56 382.25,-33.34"/>
<text xml:space="preserve" text-anchor="middle" x="407.73" y="-28.46" font-family="Times,serif" font-size="14.00">b</text>
</g>
<!-- 13 -->
<g id="node14" class="node">
<title>13</title>
<ellipse fill="none" stroke="black" cx="550.42" cy="-65.06" rx="26.06" ry="26.06"/>
<text xml:space="preserve" text-anchor="middle" x="550.42" y="-60.86" font-family="Times,serif" font-size="14.00">S13</text>
</g>
<!-- 12&#45;&gt;13 -->
<g id="edge16" class="edge">
<title>12-&gt;13</title>
<path fill="none" stroke="black" d="M479.79,-35.91C490.6,-40.43 503.63,-45.89 515.48,-50.85"/>
<polygon fill="black" stroke="black" points="513.96,-54.01 524.53,-54.64 516.66,-47.55 513.96,-54.01"/>
<text xml:space="preserve" text-anchor="middle" x="502.86" y="-50.93" font-family="Times,serif" font-size="14.00">a</text>
</g>
<!-- 13&#45;&gt;11 -->
<g id="edge17" class="edge">
<title>13-&gt;11</title>
<path fill="none" stroke="black" d="M523.92,-66.44C518.15,-66.7 512.04,-66.93 506.36,-67.06 469.66,-67.92 427.89,-67.52 397.89,-66.99"/>
<polygon fill="black" stroke="black" points="398.19,-63.5 388.12,-66.81 398.05,-70.5 398.19,-63.5"/>
<text xml:space="preserve" text-anchor="middle" x="455.29" y="-71.76" font-family="Times,serif" font-size="14.00">b</text>
</g>
</g>
</svg>